<?xml version="1.0" encoding="UTF-8" standalone="no"?>
<svg width="472px" height="321px" viewBox="0 0 472 321" version="1.1" xmlns="http://www.w3.org/2000/svg" xmlns:xlink="http://www.w3.org/1999/xlink">
    <!-- Generator: Sketch 46.2 (44496) - http://www.bohemiancoding.com/sketch -->
    <title>teamup_illustrations-03</title>
    <desc>Created with Sketch.</desc>
    <defs></defs>
    <g id="Page-1" stroke="none" stroke-width="1" fill="none" fill-rule="evenodd">
        <g id="HomePage-Desktop-Mockup" transform="translate(-88.000000, -2402.000000)" fill-rule="nonzero">
            <g id="teamup_illustrations-03" transform="translate(88.000000, 2402.000000)">
                <path d="M136.628882,64.4707926 L140.062541,62.8820847 C142.061238,61.9596091 144.213681,61.54962 146.366124,61.6521173 C148.77481,61.7546145 152.054723,61.9596091 154.565907,62.4208469 C156.103366,62.6770901 157.589577,61.6521173 157.897068,60.114658 L157.897068,60.114658 C158.20456,58.4234528 157.025841,56.8347448 155.334636,56.6809989 C154.258415,56.5785016 152.977199,56.4760043 151.593485,56.4760043 C145.597394,56.3735071 139.857546,59.1409338 136.116395,63.8045603 L136.116395,63.8045603 C135.808903,64.1633008 136.218893,64.6245385 136.628882,64.4707926 Z" id="Shape" fill="#272F42"></path>
                <g id="Group" transform="translate(144.521173, 67.135722)" fill="#272F42">
                    <circle id="Oval" cx="3.53615635" cy="3.48490771" r="2.76742671"></circle>
                    <path d="M3.53615635,6.76482085 C1.74245385,6.76482085 0.256243214,5.27861021 0.256243214,3.48490771 C0.256243214,1.69120521 1.74245385,0.204994571 3.53615635,0.204994571 C5.32985885,0.204994571 6.81606949,1.69120521 6.81606949,3.48490771 C6.81606949,5.27861021 5.32985885,6.76482085 3.53615635,6.76482085 Z M3.53615635,1.22996743 C2.30618893,1.22996743 1.28121607,2.25494028 1.28121607,3.48490771 C1.28121607,4.71487514 2.30618893,5.73984799 3.53615635,5.73984799 C4.76612378,5.73984799 5.79109663,4.71487514 5.79109663,3.48490771 C5.79109663,2.25494028 4.76612378,1.22996743 3.53615635,1.22996743 Z" id="Shape"></path>
                </g>
                <path d="M107.724647,145.597394 L82.0490771,137.8076 L82.920304,136.628882 C95.8862106,119.511835 90.4538545,99.3711183 90.4026059,99.1661238 L90.3513572,99.0636265 L90.3513572,98.9611292 L88.5576547,51.9661238 L102.036048,35.6178067 L126.584148,32.6453855 L149.646037,32.6453855 L154.770901,42.895114 L156.410858,45.3550489 C157.589577,47.1487514 159.844517,50.6849077 161.638219,53.5548317 C163.790662,57.0397394 162.560695,61.1908795 161.484473,63.9583062 C161.330727,64.3682953 161.330727,64.8807818 161.586971,65.3420195 L172.810423,85.4827362 C173.835396,87.5839305 173.374159,90.1463626 171.682953,91.7863192 C170.760478,92.6575461 169.53051,93.1700326 168.198046,93.2212812 L168.095548,93.2212812 L166.404343,93.2212812 C165.943105,93.2212812 165.533116,93.5800217 165.430619,94.0412595 L162.611944,107.62215 C161.433225,112.490771 157.84582,116.641911 152.669707,118.999349 C150.312269,120.07557 147.801086,120.639305 145.187405,120.639305 C145.187405,120.639305 145.187405,120.639305 145.187405,120.639305 C142.624973,120.639305 140.011292,120.07557 137.602606,119.050597 C136.116395,121.920521 133.400217,131.40152 131.862758,137.295114 L131.709012,137.858849 L107.724647,145.597394 Z M85.4314875,136.68013 L107.673398,143.444951 L129.966558,136.167644 C130.837785,132.887731 134.527687,119.30684 136.372638,117.0519 L136.885125,116.436916 L137.602606,116.795657 C139.960043,117.974376 142.522476,118.589359 145.084908,118.589359 L145.084908,118.589359 C147.391097,118.589359 149.646037,118.128122 151.695983,117.154397 C156.257112,115.053203 159.485776,111.414549 160.510749,107.160912 L163.329425,93.6312704 C163.636916,92.247557 164.815635,91.2225841 166.250597,91.1713355 L167.941802,91.1713355 C168.813029,91.1200869 169.581759,90.812595 170.145494,90.3001086 C171.221716,89.2751357 171.529207,87.7376764 170.862975,86.4052117 L159.639522,66.3157438 C159.127036,65.2907709 159.075787,64.2145494 159.434528,63.2408252 C160.920738,59.4484256 161.023236,56.6809989 159.793268,54.6310532 C158.050814,51.7611292 155.847123,48.2762215 154.617155,46.482519 L152.874701,43.8175896 L148.313572,34.6440825 L126.584148,34.6440825 L103.061021,37.5140065 L90.6076004,52.6323561 L92.3500543,98.7561346 C92.8625407,100.498588 97.4236699,119.71683 85.4314875,136.68013 Z" id="Shape" fill="#272F42"></path>
                <path d="M155.898371,101.421064 C155.898371,101.421064 155.847123,101.421064 155.898371,101.421064 C155.488382,101.421064 145.802389,101.113572 141.856243,92.965038 C141.651249,92.6062975 141.804995,92.1450597 142.214984,91.9400651 C142.573724,91.7350706 143.034962,91.8888165 143.239957,92.2988056 C146.776113,99.5761129 155.847123,99.8836048 155.898371,99.8836048 C156.30836,99.8836048 156.667101,100.242345 156.667101,100.652334 C156.667101,101.062324 156.30836,101.421064 155.898371,101.421064 Z" id="Shape" fill="#272F42"></path>
                <path d="M137.243865,118.435613 C137.090119,118.435613 136.936374,118.384365 136.833876,118.333116 L129.761564,113.720738 C123.970467,109.928339 120.485559,103.624756 120.434311,96.8086862 L120.434311,96.6549403 C120.434311,96.2449511 120.793051,95.8862106 121.20304,95.8862106 C121.613029,95.8862106 121.97177,96.2449511 121.97177,96.6549403 L121.97177,96.8086862 C122.023018,103.112269 125.251683,108.954615 130.581542,112.439522 L137.653855,117.0519 C138.012595,117.308143 138.115092,117.769381 137.858849,118.128122 C137.705103,118.333116 137.500109,118.435613 137.243865,118.435613 Z" id="Shape" fill="#272F42"></path>
                <path d="M456.420413,253.988274 L189.56873,253.988274 L189.56873,194.898588 L456.420413,194.898588 L456.420413,253.988274 Z M191.618675,251.938328 L454.370467,251.938328 L454.370467,196.948534 L191.618675,196.948534 L191.618675,251.938328 Z" id="Shape" fill="#272F42"></path>
                <path d="M443.557003,242.149837 L190.593702,242.149837 C190.029967,242.149837 189.56873,241.688599 189.56873,241.124864 C189.56873,240.561129 190.029967,240.099891 190.593702,240.099891 L443.557003,240.099891 C444.120738,240.099891 444.581976,240.561129 444.581976,241.124864 C444.581976,241.688599 444.120738,242.149837 443.557003,242.149837 Z" id="Shape" fill="#272F42"></path>
                <path d="M418.291422,302.981976 C417.727687,302.981976 417.26645,302.520738 417.26645,301.957003 L417.26645,251.938328 L436.023453,251.938328 L436.023453,294.423453 C436.023453,294.987188 435.562215,295.448426 434.99848,295.448426 C434.434745,295.448426 433.973507,294.987188 433.973507,294.423453 L433.973507,253.988274 L419.316395,253.988274 L419.316395,301.957003 C419.316395,302.520738 418.855157,302.981976 418.291422,302.981976 Z" id="Shape" fill="#272F42"></path>
                <rect id="Rectangle-path" fill="#272F42" opacity="0.43" x="418.291422" y="252.963301" width="16.7070575" height="11.1209555"></rect>
                <path d="M392.923344,175.424104 L253.117047,175.424104 C247.479696,175.424104 242.867318,170.811726 242.867318,165.174376 L242.867318,71.2868621 C242.867318,65.6495114 247.479696,61.0371336 253.117047,61.0371336 L392.923344,61.0371336 C398.560695,61.0371336 403.173073,65.6495114 403.173073,71.2868621 L403.173073,165.123127 C403.173073,170.811726 398.560695,175.424104 392.923344,175.424104 Z M253.117047,63.0870793 C248.607166,63.0870793 244.917264,66.7769815 244.917264,71.2868621 L244.917264,165.123127 C244.917264,169.633008 248.607166,173.32291 253.117047,173.32291 L392.923344,173.32291 C397.433225,173.32291 401.123127,169.633008 401.123127,165.123127 L401.123127,71.2868621 C401.123127,66.7769815 397.433225,63.0870793 392.923344,63.0870793 L253.117047,63.0870793 Z" id="Shape" fill="#272F42"></path>
                <path d="M243.892291,153.028447 L243.892291,164.713138 C243.892291,170.042997 248.248426,174.399131 253.578284,174.399131 L392.462106,174.399131 C397.791965,174.399131 402.1481,170.042997 402.1481,164.713138 L402.1481,153.028447 L243.892291,153.028447 Z" id="Shape" fill="#272F42" opacity="0.17"></path>
                <g id="Group" transform="translate(305.954397, 173.220413)">
                    <rect id="Rectangle-path" fill="#FFFFFF" x="1.38371336" y="1.28121607" width="31.3129207" height="28.0842562"></rect>
                    <path d="M33.7216069,30.3904452 L0.358740499,30.3904452 L0.358740499,0.256243214 L33.7216069,0.256243214 L33.7216069,30.3904452 Z M2.40868621,28.3404995 L31.6716612,28.3404995 L31.6716612,2.30618893 L2.40868621,2.30618893 L2.40868621,28.3404995 Z" id="Shape" fill="#272F42"></path>
                </g>
                <g id="Group" transform="translate(41.511401, 128.121607)">
                    <path d="M203.713355,169.223018 L178.704017,136.116395 L162.816938,124.790445 L162.816938,124.790445 C163.226927,123.816721 162.611944,122.740499 161.586971,122.535505 L157.435831,121.818024 L158.307058,121.151792 C160.305755,119.511835 159.844517,116.334419 157.435831,115.360695 L157.435831,115.360695 C157.435831,115.360695 163.073181,87.8914224 146.109881,45.0988056 L119.665581,13.1196526 L91.3763301,1.53745928 C91.3763301,1.53745928 59.1921824,13.4271444 42.2288817,9.12225841 L16.6558089,23.1131379 C16.6558089,23.1131379 15.784582,23.5743757 14.4521173,24.4968512 C-0.461237785,34.9003257 -3.07491857,55.9122693 8.55852334,69.9031488 L20.9606949,84.7652552 L63.4970684,167.121824 L111.414549,175.475353 C111.414549,175.475353 128.890337,177.320304 150.004777,177.115309" id="Shape" fill="#AEB1BA"></path>
                    <path d="M146.314875,178.089034 C127.045385,178.089034 111.465798,176.449077 111.312052,176.449077 L111.260803,176.449077 L62.8820847,168.0443 L62.6258415,167.583062 L20.1407166,85.3289902 L7.7897937,70.5693811 C1.99869707,63.6508143 -0.614983713,54.5285559 0.563735071,45.6112921 C1.74245385,36.6427796 6.50857763,28.8529859 13.8883822,23.676873 C15.2720955,22.7031488 16.1945711,22.241911 16.1945711,22.1906623 L42.0751357,7.99478827 L42.4851249,8.09728556 C58.9359392,12.2996743 90.7100977,0.666232356 91.0175896,0.563735071 L91.3763301,0.409989142 L120.280565,12.2996743 L146.981107,44.6375679 L147.032356,44.7913138 C162.3557,83.4327904 159.280782,110.082085 158.512052,114.848208 C159.588274,115.514441 160.305755,116.641911 160.459501,117.923127 C160.613246,119.153094 160.305755,120.331813 159.588274,121.254289 L161.689468,121.613029 C162.509446,121.766775 163.175679,122.228013 163.585668,122.945494 C163.841911,123.406732 163.944408,123.919218 163.89316,124.380456 L179.319001,135.398914 L204.430836,168.608035 L202.790879,169.838002 L177.83279,136.885125 L161.433225,125.200434 L161.740717,124.431705 C161.843214,124.175461 161.791965,124.021716 161.740717,123.919218 C161.689468,123.816721 161.586971,123.662975 161.330727,123.611726 L154.924647,122.484256 L157.538328,120.383062 C158.20456,119.870575 158.512052,119.050597 158.409555,118.17937 C158.307058,117.308143 157.743322,116.641911 156.974593,116.334419 L156.154615,116.026927 L156.30836,115.206949 C156.359609,114.950706 161.689468,87.5839305 145.136156,45.7137894 L118.9481,14.0421281 L91.2225841,2.66492942 C87.4301846,4.04864278 58.5771987,14.0933768 42.2801303,10.2497286 L17.065798,24.0356135 C17.065798,24.0356135 16.1945711,24.4968512 14.9646037,25.3680782 C8.04603692,30.1854506 3.63865364,37.4627579 2.5111835,45.8675353 C1.38371336,54.2210641 3.84364821,62.7795874 9.27600434,69.2369164 L21.7294245,84.1502714 L21.7806732,84.2527687 L64.0608035,166.1481 L111.414549,174.399131 C112.285776,174.501629 129.454072,176.244083 149.851031,176.039088 L149.851031,178.089034 C148.77481,178.089034 147.544843,178.089034 146.314875,178.089034 Z" id="Shape" fill="#272F42"></path>
                </g>
                <path d="M220.215418,264.238002 L204.328339,252.912052 C204.738328,251.938328 204.123344,250.862106 203.098371,250.657112 L198.947231,249.939631 L199.818458,249.273398 C201.817155,247.633442 201.355917,244.456026 198.947231,243.482302 C198.947231,243.482302 201.150923,232.873833 198.690988,214.526819 L198.690988,214.526819 L172.144191,219.087948 L185.622584,242.04734 C186.340065,243.226059 186.186319,244.763518 185.315092,245.839739 L184.956352,246.249729 C183.470141,248.043431 184.238871,250.759609 186.442562,251.47709 L186.442562,251.47709 C188.492508,252.194571 189.312486,254.705755 188.082519,256.499457 L186.750054,258.446906 C186.750054,258.446906 179.472747,271.207818 187.416287,287.504886 L195.97481,305.031922 L195.97481,305.031922 C213.70684,302.520738 230.567644,299.599566 245.173507,297.293377 L220.215418,264.238002 Z" id="Shape" fill="#272F42" opacity="0.41"></path>
                <path d="M48.3787188,247.274701 L48.3787188,247.274701 C46.2262758,247.274701 44.1250814,246.864712 42.0751357,246.147231 C34.4390879,243.277307 29.7242128,235.64126 30.5441911,227.492725 C31.1591748,221.599131 33.004126,214.783062 36.0277959,207.147014 C39.6664495,198.076004 41.5626493,191.772421 41.7163952,182.39392 L41.7163952,180.958958 L43.5613464,180.958958 C47.0975027,179.780239 52.1711183,179.165255 58.679696,179.165255 C69.3906623,179.165255 80.5628664,180.805212 80.6653637,180.805212 L81.7415852,180.958958 L69.8519001,239.587405 L55.3997828,245.737242 C53.1960912,246.813464 50.787405,247.274701 48.3787188,247.274701 Z M43.7150923,183.111401 C43.4588491,192.438654 41.5626493,198.844734 37.872747,207.915744 C34.9003257,215.346797 33.1066232,222.009121 32.5428882,227.69772 C31.8254072,234.87253 36.0277959,241.688599 42.7926167,244.199783 C44.5863192,244.866015 46.482519,245.224756 48.3787188,245.224756 L48.3787188,245.224756 C50.5311618,245.224756 52.6323561,244.814767 54.6310532,243.94354 L68.1094463,238.203692 L79.332899,182.75266 C76.3092291,182.342671 67.3919653,181.26645 58.7309446,181.26645 C52.0686211,181.26645 47.0462541,181.881433 43.7150923,183.111401 Z" id="Shape" fill="#272F42"></path>
                <g id="Group" transform="translate(33.824104, 177.320304)">
                    <path d="M9.01976113,0 C9.01976113,10.3522258 7.02106406,20.6019544 3.17741585,30.2366992 C2.61368078,31.569164 2.10119435,33.004126 1.58870793,34.4903366 C1.58870793,34.4903366 13.2733985,46.0212812 39.5639522,40.0764387 L39.5639522,40.0764387 L46.7900109,4.56112921" id="Shape" fill="#AEB1BA"></path>
                    <path d="M25.111835,42.8438654 C8.76351792,42.8438654 1.17871878,35.6178067 0.819978284,35.2590662 L0.358740499,34.7978284 L0.563735071,34.1828447 C1.0762215,32.7478827 1.58870793,31.3129207 2.20369164,29.9292074 C6.04733985,20.3969598 7.99478827,10.3009772 7.99478827,0.0512486428 L10.044734,0.0512486428 C10.044734,10.5572204 8.04603692,20.8581976 4.09989142,30.697937 C3.63865364,31.8766558 3.17741585,33.0553746 2.76742671,34.2340934 C5.17611292,36.1815418 16.6045603,44.0738328 38.6414767,39.307709 L45.7137894,4.45863192 L47.7124864,4.86862106 L40.3839305,41.0501629 L39.7176982,41.2039088 C34.2340934,42.3313789 29.416721,42.8438654 25.111835,42.8438654 Z" id="Shape" fill="#272F42"></path>
                </g>
                <path d="M375.34506,228.517698 L330.604995,228.517698 C328.401303,228.517698 326.453855,227.082736 325.787622,224.981542 L325.018893,222.572856 C324.455157,220.779153 325.223887,218.831705 326.863844,217.909229 L341.469707,209.606949 C345.672096,207.249511 350.438219,205.968295 355.204343,205.968295 C360.380456,205.968295 365.351574,207.403257 369.605212,210.170684 C376.216287,214.424321 378.471227,219.856678 379.239957,223.700326 C379.4962,224.879045 379.188708,226.160261 378.36873,227.082736 C377.702497,227.953963 376.575027,228.517698 375.34506,228.517698 Z M355.30684,208.018241 C350.848208,208.018241 346.492074,209.19696 342.597177,211.400651 L327.991314,219.702932 C327.171336,220.164169 326.812595,221.137894 327.068838,222.009121 L327.837568,224.417807 C328.247557,225.699023 329.375027,226.519001 330.707492,226.519001 L375.447557,226.519001 C376.062541,226.519001 376.626276,226.262758 376.985016,225.80152 C377.395005,225.340282 377.548751,224.725299 377.395005,224.110315 C376.728773,220.676656 374.678827,215.756786 368.682736,211.913138 C364.634093,209.350706 360.021716,208.018241 355.30684,208.018241 Z" id="Shape" fill="#272F42"></path>
                <g id="Group" transform="translate(170.657980, 144.008686)">
                    <path d="M211.554397,75.5404995 L206.53203,70.5181325 L205.968295,67.0844734 C205.609555,64.8807818 204.635831,62.7795874 203.14962,61.0883822 L192.797394,49.352443 C189.209989,45.3038002 183.316395,44.0225841 178.447774,46.3287731 C145.443648,61.9083605 114.540717,55.2460369 98.2436482,49.4549403 C89.1726384,46.2262758 79.486645,45.047557 69.9031488,46.0725299 L69.8006515,46.0725299 L69.8006515,46.0725299 C63.3433225,39.2052117 55.5022801,33.8753529 46.7387622,30.3904452 L44.1250814,29.3654723 C38.590228,27.1617807 33.8241042,23.4718784 30.3391965,18.654506 L30.3391965,18.654506 C23.9331162,9.83973941 15.2720955,5.22736156 5.38110749,1.7937025 L1.48621064,67.6482085 C6.76482085,71.9530945 2.152443,74.5667752 8.91726384,76.3092291 L40.3839305,84.355266 C54.0673181,87.8401737 68.3144408,88.3526602 82.202823,85.9952226 C96.2961998,83.637785 111.824539,83.637785 121.561781,81.6390879 C128.070358,80.3066232 134.783931,80.1016287 141.343757,81.2803474 L141.446254,81.2803474 C150.568512,82.920304 159.947014,80.4091205 167.019327,74.4130293 C171.529207,70.5693811 174.911618,66.9819761 174.911618,66.9819761 L178.960261,65.3932682 C180.292725,64.8807818 181.830185,65.1882736 182.855157,66.2132465 C186.340065,69.7494028 193.71987,74.7717698 198.588491,77.9491857 C201.509663,79.8453855 205.097068,80.4603692 208.530727,79.5891422 L210.580673,79.0254072 C212.169381,78.615418 212.681868,76.6679696 211.554397,75.5404995 Z" id="Shape" fill="#FFFFFF"></path>
                    <path d="M65.137025,88.4551574 C56.6809989,88.4551574 48.2762215,87.4301846 40.1789359,85.3289902 L8.71226927,77.334202 C4.71487514,76.3092291 4.09989142,74.8742671 3.58740499,72.7730727 C3.27991314,71.4918567 2.97242128,70.2106406 0.871226927,68.4681868 L0.461237785,68.1606949 L4.45863192,0.461237785 L5.73984799,0.92247557 C17.8857763,5.12486428 25.5218241,10.3009772 31.2104235,18.1420195 C34.5928339,22.805646 39.2052117,26.393051 44.5350706,28.4942454 L47.1487514,29.5192182 C55.809772,32.9528773 63.7533116,38.3339848 70.2106406,45.0988056 C72.3630836,44.8938111 74.5155266,44.7913138 76.6679696,44.7913138 C84.0990228,44.7913138 91.4788274,46.0725299 98.5511401,48.5837134 C106.802172,51.504886 119.921824,55.0410423 135.398914,55.0410423 C150.261021,55.0410423 164.559392,51.8123779 177.986536,45.5087948 C179.72899,44.6888165 181.62519,44.2788274 183.572638,44.2788274 C187.365038,44.2788274 191.05494,45.9187839 193.566124,48.7887079 L203.91835,60.5246471 C205.558306,62.3695983 206.583279,64.6245385 206.993268,67.0332248 L207.505755,70.1081433 L212.271878,74.8742671 C213.040608,75.6429967 213.3481,76.7704669 213.091857,77.8466884 C212.784365,78.9229099 212.015635,79.7428882 210.888165,80.05038 L208.838219,80.6141151 C205.148317,81.5878393 201.25342,80.9216069 198.076004,78.8716612 C192.746145,75.3867535 185.622584,70.5181325 182.188925,66.9819761 C181.471444,66.2644951 180.343974,66.0082519 179.421498,66.3669924 L175.57785,67.853203 C174.860369,68.6219327 171.734202,71.8505972 167.788056,75.2330076 C161.99696,80.1528773 154.617155,82.8690554 147.032356,82.8690554 C145.136156,82.8690554 143.239957,82.7153094 141.395005,82.3565689 L141.292508,82.3565689 C135.091422,81.2290988 128.429099,81.3828447 121.920521,82.7153094 C116.949403,83.7402823 110.543322,84.2527687 103.727253,84.8165038 C96.7574376,85.3802389 89.5313789,85.9439739 82.5103149,87.1226927 C76.6679696,87.9939197 70.876873,88.4551574 65.137025,88.4551574 Z M2.56243214,67.2382193 C4.86862106,69.2369164 5.27861021,71.0306189 5.58610206,72.311835 C5.94484256,73.746797 6.09858849,74.5667752 9.2247557,75.3355049 L40.6914224,83.3815418 C48.634962,85.3802389 56.8347448,86.4052117 65.137025,86.4052117 C70.7743757,86.4052117 76.462975,85.9439739 82.1003257,84.9702497 C89.1726384,83.7915309 96.4499457,83.2277959 103.522258,82.6640608 C110.287079,82.1003257 116.641911,81.6390879 121.459283,80.6141151 C128.224104,79.2304017 135.142671,79.0766558 141.6,80.2553746 L141.702497,80.2553746 C143.444951,80.5628664 145.238654,80.7166124 146.981107,80.7166124 C154.104669,80.7166124 160.971987,78.2054289 166.404343,73.593051 C170.811726,69.8519001 174.142888,66.2644951 174.194137,66.2132465 L174.347883,66.0595005 L178.60152,64.419544 C180.292725,63.7533116 182.291422,64.2145494 183.572638,65.4957655 C187.108795,69.0831705 194.84734,74.310532 199.152226,77.1292074 C200.997177,78.3591748 203.14962,78.9741585 205.40456,78.9741585 C206.378284,78.9741585 207.352009,78.8716612 208.274484,78.615418 L210.32443,78.051683 C210.836916,77.897937 211.041911,77.4879479 211.041911,77.2829533 C211.09316,77.1292074 211.144408,76.6679696 210.785668,76.2579805 L205.558306,71.0306189 L204.943322,67.289468 C204.635831,65.2395223 203.713355,63.3433225 202.38089,61.8058632 L192.028664,50.069924 C189.876221,47.6612378 186.801303,46.2262758 183.572638,46.2262758 C181.932682,46.2262758 180.343974,46.5850163 178.857763,47.3024973 C165.174376,53.7598263 150.568512,57.0397394 135.398914,57.0397394 C119.665581,57.0397394 106.289685,53.4523344 97.8849077,50.4799131 C91.0175896,48.0199783 83.8427796,46.7900109 76.6679696,46.7900109 C74.464278,46.7900109 72.2093377,46.8925081 70.005646,47.1487514 L69.3906623,47.2 L69.0319218,46.8412595 C62.7283388,40.1276873 54.8872964,34.7978284 46.3800217,31.415418 L43.7663409,30.3904452 C38.0777416,28.1355049 33.1578719,24.2918567 29.5192182,19.3207383 C24.2918567,12.0946797 17.2707926,7.27730727 6.30358306,3.27991314 L2.56243214,67.2382193 Z" id="Shape" fill="#272F42"></path>
                </g>
                <path d="M377.190011,215.346797 C376.985016,215.346797 376.780022,215.295548 376.626276,215.141802 L359.201737,197.717264 C357.818024,196.33355 356.024321,195.616069 354.128122,195.616069 L353.103149,195.616069 C352.69316,195.616069 352.334419,195.257329 352.334419,194.84734 C352.334419,194.437351 352.69316,194.07861 353.103149,194.07861 L354.128122,194.07861 C356.485559,194.07861 358.638002,195.001086 360.329207,196.641042 L377.753746,214.065581 C378.061238,214.373073 378.061238,214.834311 377.753746,215.141802 C377.6,215.2443 377.395005,215.346797 377.190011,215.346797 Z" id="Shape" fill="#272F42"></path>
                <path d="M374.832573,224.725299 C374.627579,224.725299 374.422584,224.622801 374.268838,224.469055 C373.961346,224.161564 374.012595,223.649077 374.320087,223.392834 C374.781325,222.982845 374.986319,222.41911 374.986319,221.804126 C374.986319,221.189142 374.730076,220.625407 374.268838,220.215418 L363.096634,210.426927 C360.072964,207.761998 356.639305,204.687079 352.949403,203.867101 C352.539414,203.764604 352.28317,203.354615 352.385668,202.944625 C352.488165,202.534636 352.898154,202.278393 353.308143,202.38089 C357.356786,203.303366 360.944191,206.480782 364.121607,209.299457 L375.293811,219.087948 C376.062541,219.75418 376.523779,220.779153 376.575027,221.804126 C376.575027,222.829099 376.165038,223.854072 375.396308,224.571553 C375.242562,224.622801 375.037568,224.725299 374.832573,224.725299 Z" id="Shape" fill="#272F42"></path>
                <g id="Group" transform="translate(159.895765, 139.908795)">
                    <path d="M9.17350706,76.3604777 C12.4534202,78.1029316 15.9895765,79.486645 19.6794788,80.4091205 L21.2169381,80.8191097 C29.262975,74.4130293 42.2801303,59.6021716 46.5337676,28.545494 C44.4838219,26.8542888 42.6901194,24.958089 41.1014115,22.805646 L41.1014115,22.805646 C33.4141151,12.197177 22.3956569,7.68729642 9.83973941,3.94614549 L3.33116178,1.99869707 L1.22996743,1.38371336" id="Shape" fill="#AEB1BA"></path>
                    <path d="M21.4731813,81.9465798 L19.4744843,81.4340934 C15.7333333,80.4603692 12.1459283,79.0766558 8.71226927,77.2829533 C8.19978284,77.0267101 8.04603692,76.4117264 8.30228013,75.89924 C8.55852334,75.3867535 9.17350706,75.2330076 9.68599349,75.4892508 C12.914658,77.2317047 16.3995657,78.5641694 19.9869707,79.486645 L21.0119435,79.7428882 C28.4942454,73.6442997 41.2039088,59.1921824 45.5087948,29.0067318 C43.5613464,27.3667752 41.8188925,25.4705755 40.3326819,23.4206298 C33.1066232,13.5296417 22.8568947,8.8660152 9.63474484,4.91986971 L1.02497286,2.35743757 C0.461237785,2.20369164 0.153745928,1.63995657 0.358740499,1.0762215 C0.512486428,0.512486428 1.0762215,0.204994571 1.63995657,0.409989142 L10.2497286,2.97242128 C23.8818675,7.02106406 34.4903366,11.8384365 42.0238871,22.241911 C43.5100977,24.2918567 45.3038002,26.1880565 47.2512486,27.828013 L47.7124864,28.1867535 L47.6099891,28.7504886 C43.2026059,60.5246471 29.6217155,75.5404995 21.8831705,81.6903366 L21.4731813,81.9465798 Z" id="Shape" fill="#272F42"></path>
                </g>
                <g id="Group" transform="translate(185.520087, 259.318132)">
                    <path d="M45.2525516,55.3485342 C45.2525516,55.3485342 34.2340934,40.0764387 30.6466884,24.9068404 C29.6729642,20.8581976 32.85038,16.9633008 37.0015201,16.9633008 L87.1739414,16.9633008 C93.8875136,16.9633008 99.9348534,12.8121607 102.394788,6.55982628 L102.394788,6.55982628 C103.368512,3.99739414 101.472313,1.17871878 98.704886,1.17871878 L10.044734,1.17871878 C4.04864278,1.17871878 -0.153745928,7.02106406 1.69120521,12.7096634 C5.94484256,25.6243214 13.6833876,45.9187839 23.3181325,55.3485342" id="Shape" fill="#FFFFFF"></path>
                    <path d="M45.2525516,56.3735071 C44.9450597,56.3735071 44.6375679,56.2197611 44.4325733,55.9635179 C43.9713355,55.3485342 33.2603692,40.3326819 29.6729642,25.1630836 C29.1604777,22.959392 29.6729642,20.653203 31.1079262,18.8595005 C32.5428882,17.0145494 34.7465798,15.9895765 37.0527687,15.9895765 L87.22519,15.9895765 C93.4775244,15.9895765 99.2173724,12.0434311 101.472313,6.20108578 C101.831053,5.27861021 101.728556,4.30488599 101.164821,3.48490771 C100.601086,2.66492942 99.7298588,2.20369164 98.7561346,2.20369164 L10.0959826,2.20369164 C7.58479913,2.20369164 5.27861021,3.38241042 3.79239957,5.43235613 C2.30618893,7.48230185 1.89619978,10.044734 2.71617807,12.4534202 C6.55982628,24.1893594 14.4521173,45.2525516 24.0868621,54.6823018 C24.4968512,55.092291 24.4968512,55.7072747 24.0868621,56.1172638 C23.676873,56.527253 23.0618893,56.527253 22.6519001,56.1172638 C13.1709012,46.8412595 5.48360478,27.6230185 0.768729642,13.0684039 C-0.204994571,10.044734 0.256243214,6.81606949 2.152443,4.25363735 C3.99739414,1.69120521 6.91856678,0.204994571 10.0959826,0.204994571 L98.7561346,0.204994571 C100.396091,0.204994571 101.93355,1.02497286 102.856026,2.35743757 C103.778502,3.68990228 103.983496,5.43235613 103.368512,6.96981542 C100.80608,13.5808903 94.2975027,18.0395223 87.22519,18.0395223 L37.0527687,18.0395223 C35.3615635,18.0395223 33.7728556,18.8082519 32.6966341,20.1407166 C31.6716612,21.4219327 31.3129207,23.1131379 31.6716612,24.7018458 C35.1565689,39.4614549 46.0212812,54.6310532 46.1237785,54.7847991 C46.4312704,55.2460369 46.3287731,55.8610206 45.8675353,56.2197611 C45.6625407,56.3222584 45.4575461,56.3735071 45.2525516,56.3735071 Z" id="Shape" fill="#272F42"></path>
                </g>
                <path d="M181.983931,314.666667 C168.454289,289.042345 139.191314,229.440174 131.555266,177.371553 C130.479045,169.940499 124.585451,163.89316 116.949403,162.304452 C108.544625,160.561998 100.498588,159.690771 93.0162866,159.690771 C86.3027144,159.690771 80.1016287,160.408252 74.5155266,161.843214 C64.983279,164.303149 59.1409338,173.066667 60.832139,182.291422 C63.8558089,198.434745 69.3906623,215.193051 77.2829533,232.2076 C88.2501629,255.833225 95.9887079,279.100109 115.104452,301.34202 L119.71683,306.825624 C119.819327,306.774376 136.782628,320.20152 181.983931,314.666667 Z" id="Shape" fill="#FFFFFF"></path>
                <path d="M203.50836,319.07405 C203.50836,319.07405 160.664495,244.251031 151.080999,175.014115 C149.082302,160.459501 138.21759,148.621064 123.86797,145.494897 C109.979587,142.471227 92.247557,140.728773 75.5404995,145.238654 C57.962215,150.004777 46.9437568,167.378067 50.1211726,185.315092 C54.7335505,211.349403 69.4931596,255.833225 99.8323561,306.108143 L119.768078,306.825624 L181.983931,314.666667 L203.50836,319.07405 Z" id="Shape" fill="#FFFFFF"></path>
                <path d="M203.50836,320.099023 C203.14962,320.099023 202.790879,319.894028 202.637134,319.586536 C202.227144,318.817807 159.588274,243.789794 150.107275,175.167861 C148.159826,161.023236 137.551357,149.492291 123.662975,146.468621 C105.674701,142.573724 89.5826276,142.471227 75.8479913,146.212378 C58.679696,150.876004 48.0712269,167.583062 51.1973941,185.110098 C53.1960912,196.436048 62.2158523,237.793702 93.7337676,293.500977 C93.9900109,294.013464 93.8362649,294.628447 93.3237785,294.884691 C92.8112921,295.140934 92.1963084,294.987188 91.9400651,294.474701 C60.2684039,238.511183 51.1973941,196.846037 49.1474484,185.468838 C47.5587405,176.551574 49.352443,167.429316 54.2210641,159.793268 C59.0896851,152.15722 66.571987,146.622367 75.2842562,144.264929 C89.377633,140.47253 105.777199,140.523779 124.072964,144.521173 C138.781325,147.698588 150.004777,159.947014 152.105972,174.911618 C161.586971,243.17481 203.969598,317.844083 204.379587,318.612812 C204.635831,319.125299 204.482085,319.740282 204.020847,319.996526 C203.815852,320.047774 203.662106,320.099023 203.50836,320.099023 Z" id="Shape" fill="#272F42"></path>
                <path d="M181.983931,315.69164 C181.62519,315.69164 181.26645,315.486645 181.061455,315.127904 C165.37937,285.45494 137.961346,228.107709 130.530293,177.525299 C129.50532,170.504235 123.970467,164.815635 116.744408,163.329425 C100.908578,160.049511 86.3539631,159.895765 74.8230185,162.868187 C65.854506,165.174376 60.2684039,173.425407 61.9083605,182.137676 C64.9320304,198.178502 70.4156352,214.885559 78.3079262,231.797611 C80.5628664,236.717481 82.7665581,241.637351 84.8677524,246.454723 C93.1187839,265.365472 100.959826,283.2 115.975679,300.675787 C116.334419,301.085776 116.28317,301.752009 115.873181,302.110749 C115.463192,302.46949 114.79696,302.418241 114.438219,302.008252 C99.1661238,284.276221 91.3250814,266.287948 82.9715527,247.274701 C80.8703583,242.508578 78.7179153,237.537459 76.462975,232.668838 C68.5194354,215.60304 62.984582,198.742237 59.9096634,182.496417 C58.0647123,172.759175 64.265798,163.48317 74.310532,160.86949 C86.2002172,157.84582 101.011075,157.999566 117.154397,161.330727 C125.200434,162.970684 131.40152,169.376764 132.580239,177.269055 C139.960043,227.543974 167.27557,284.686211 182.855157,314.256678 C183.111401,314.769164 182.906406,315.384148 182.445168,315.640391 C182.291422,315.640391 182.137676,315.69164 181.983931,315.69164 Z" id="Shape" fill="#272F42"></path>
                <g id="Group" opacity="0.53" fill="#272F42">
                    <polygon id="Shape" points="38.4364821 180.036482 0.0512486428 180.036482 0.0512486428 0.307491857 238.408686 0.307491857 238.408686 93.9900109 236.256243 93.9900109 236.256243 2.45993485 2.20369164 2.45993485 2.20369164 177.884039 38.4364821 177.884039"></polygon>
                    <path d="M58.8334419,100.857329 L13.2221498,100.857329 L13.2221498,98.704886 L58.8334419,98.704886 C59.9609121,98.704886 60.8833876,97.7824104 60.8833876,96.6549403 C60.8833876,95.6299674 60.1659066,94.8099891 59.1409338,94.6049946 L57.8084691,94.4 L58.3722041,93.1187839 C58.5771987,92.6062975 58.679696,92.0938111 58.679696,91.530076 C58.679696,89.3263844 56.8859935,87.5326819 54.6823018,87.5326819 C54.0673181,87.5326819 53.4523344,87.6864278 52.8885993,87.942671 L50.9411509,88.9163952 L51.2998914,86.8152009 C51.4023887,86.2002172 51.4536374,85.5339848 51.4536374,84.9190011 C51.4536374,79.0254072 46.6875136,74.2592834 40.7939197,74.2592834 C34.9003257,74.2592834 30.2366992,79.0254072 30.2366992,84.9190011 C30.2366992,85.7389794 30.3391965,86.507709 30.4929425,87.3276873 L30.8004343,88.7114007 L29.262975,88.6089034 C28.3404995,88.5576547 27.4180239,88.8651466 26.7005429,89.4288817 L25.829316,90.095114 L25.1630836,89.1726384 C24.394354,88.0964169 23.1643865,87.4814332 21.8831705,87.4814332 C19.7819761,87.4814332 18.0395223,89.1213898 17.8857763,91.1713355 L17.783279,92.8112921 L16.348317,92.0425624 C15.4258415,91.530076 14.4521173,91.3250814 13.3758958,91.3250814 C12.0946797,91.3250814 10.8647123,91.6838219 9.83973941,92.4013029 L8.60977199,90.6076004 C9.99348534,89.6338762 11.6334419,89.1726384 13.3758958,89.1726384 C14.2983713,89.1726384 15.1695983,89.3263844 16.0408252,89.5826276 C16.8608035,87.1226927 19.218241,85.3289902 21.8831705,85.3289902 C23.523127,85.3289902 25.0605863,85.9952226 26.2393051,87.1226927 C26.8542888,86.8152009 27.4692725,86.5589577 28.1355049,86.4564604 C28.0842562,85.8927253 28.0330076,85.3802389 28.0330076,84.8165038 C28.0330076,77.7441911 33.7728556,72.0043431 40.8451683,72.0043431 C47.917481,72.0043431 53.657329,77.7441911 53.657329,84.8165038 C53.657329,85.0214984 53.657329,85.1752443 53.657329,85.3802389 C54.0160695,85.3289902 54.3235613,85.2777416 54.6823018,85.2777416 C58.0647123,85.2777416 60.832139,88.0451683 60.832139,91.4275787 C60.832139,91.8888165 60.7808903,92.2988056 60.6783931,92.7087948 C62.113355,93.3750271 63.0358306,94.8612378 63.0358306,96.5011944 C63.0358306,98.9611292 61.1908795,100.857329 58.8334419,100.857329 Z" id="Shape"></path>
                    <path d="M213.091857,37.4115092 C212.425624,37.4115092 211.759392,37.3090119 211.09316,37.155266 L182.701412,37.155266 C180.241477,37.155266 178.24278,35.1565689 178.24278,32.6966341 C178.24278,30.2366992 180.241477,28.2380022 182.701412,28.2380022 C183.162649,25.829316 185.263844,23.9331162 187.775027,23.7793702 C187.67253,23.1643865 187.570033,22.5494028 187.570033,21.9344191 C187.570033,16.502063 191.977416,12.0946797 197.409772,12.0946797 C200.484691,12.0946797 203.354615,13.5296417 205.199566,15.9383279 C206.122041,15.2208469 207.30076,14.8621064 208.479479,14.8621064 C211.554397,14.8621064 214.014332,17.3220413 214.014332,20.3969598 C214.014332,20.6019544 214.014332,20.7557003 213.963084,20.9606949 C218.062975,21.4219327 221.240391,24.9068404 221.240391,29.1604777 C221.342888,33.7216069 217.652986,37.4115092 213.091857,37.4115092 Z M182.701412,30.4416938 C181.420195,30.4416938 180.395223,31.4666667 180.395223,32.7478827 C180.395223,34.0290988 181.420195,35.0540717 182.701412,35.0540717 L211.400651,35.0540717 L211.554397,35.1053203 C212.066884,35.2590662 212.630619,35.3103149 213.143105,35.3103149 C216.474267,35.3103149 219.241694,32.5941368 219.241694,29.2117264 C219.241694,25.8805646 216.525516,23.1131379 213.143105,23.1131379 C213.091857,23.1131379 213.040608,23.1131379 212.989359,23.1131379 L211.195657,23.2156352 L211.759392,21.6781759 C211.913138,21.2681868 211.964387,20.8581976 211.964387,20.4994571 C211.964387,18.654506 210.426927,17.1170467 208.581976,17.1170467 C207.557003,17.1170467 206.583279,17.5782845 205.968295,18.3982628 L204.994571,19.6282302 L204.225841,18.2445168 C202.842128,15.8358306 200.330945,14.34962 197.563518,14.34962 C193.309881,14.34962 189.876221,17.783279 189.876221,22.0369164 C189.876221,22.959392 190.029967,23.8306189 190.388708,24.7018458 L191.106189,26.6492942 L189.107492,26.1368078 C186.852552,25.5730727 184.853855,27.264278 184.853855,29.416721 L184.853855,29.5192182 L184.905103,31.0566775 L183.418893,30.5954397 C183.162649,30.4416938 182.957655,30.4416938 182.701412,30.4416938 Z" id="Shape"></path>
                </g>
                <path d="M154.514658,9.32725299 C154.155917,9.2247557 153.745928,9.17350706 153.387188,9.07100977 C153.387188,9.07100977 157.948317,13.1196526 158.102063,19.4744843 C158.102063,19.4744843 151.439739,10.8647123 140.882519,7.63604777 C140.882519,7.63604777 138.268838,18.8595005 131.811509,20.806949 L131.811509,20.806949 C130.889034,19.5769815 129.812812,18.654506 128.685342,17.9882736 C128.37785,17.7320304 128.070358,17.5782845 127.711618,17.4757872 C118.538111,13.5808903 105.059718,25.1630836 105.059718,25.1630836 C105.059718,25.1630836 101.011075,19.9869707 91.0688382,18.50076 L97.5774159,25.6243214 L97.2186754,25.67557 C81.7415852,28.8017372 71.9530945,44.4838219 76.4117264,59.6021716 C77.6929425,63.9070575 77.7441911,68.4169381 81.2803474,73.0805646 C85.3289902,78.4104235 86.7127036,87.4301846 87.4301846,94.8099891 C87.6351792,96.9111835 89.2751357,98.5511401 91.3763301,98.8073833 L91.3763301,98.8073833 C91.3763301,98.8073833 93.682519,82.8690554 110.235831,67.7507058 L112.695765,67.0844734 C116.795657,65.9570033 121.305537,67.7507058 123.201737,71.5431053 C123.970467,73.0805646 125.764169,73.9005429 127.455375,73.4393051 C128.941585,73.029316 130.017807,71.6456026 130.120304,70.0568947 C130.479045,64.9320304 130.017807,54.8872964 122.433008,48.7887079 C122.433008,48.7887079 137.038871,49.8649294 154.770901,45.5600434 C173.835396,41.0501629 173.68165,13.5808903 154.514658,9.32725299 Z" id="Shape" fill="#9E0059"></path>
                <g id="Group" transform="translate(98.397394, 63.548317)">
                    <path d="M26.0855592,11.5309446 C25.0605863,5.68859935 19.9869707,1.22996743 13.8371336,1.22996743 C6.96981542,1.22996743 1.434962,6.76482085 1.434962,13.632139 C1.434962,17.6807818 3.38241042,21.3194354 6.40608035,23.5743757" id="Shape" fill="#FFFFFF"></path>
                    <path d="M6.40608035,24.5993485 C6.20108578,24.5993485 5.99609121,24.5480999 5.79109663,24.394354 C2.35743757,21.8319218 0.409989142,17.937025 0.409989142,13.632139 C0.409989142,6.25233442 6.45732899,0.204994571 13.8371336,0.204994571 C20.3969598,0.204994571 25.9830619,4.86862106 27.0592834,11.3259501 C27.1617807,11.8896851 26.8030402,12.4021716 26.2393051,12.5046688 C25.67557,12.6071661 25.1630836,12.2484256 25.0605863,11.6846906 C24.1381107,6.20108578 19.4232356,2.25494028 13.8371336,2.25494028 C7.58479913,2.25494028 2.45993485,7.37980456 2.45993485,13.632139 C2.45993485,17.2707926 4.09989142,20.5507058 7.02106406,22.7543974 C7.48230185,23.1131379 7.58479913,23.7281216 7.22605863,24.1893594 C7.02106406,24.4456026 6.7135722,24.5993485 6.40608035,24.5993485 Z" id="Shape" fill="#272F42"></path>
                </g>
                <path d="M118.281868,81.5878393 C118.128122,81.5878393 117.974376,81.5365907 117.82063,81.4340934 C117.461889,81.1778502 117.410641,80.7166124 117.615635,80.3578719 C118.17937,79.5891422 118.486862,78.6666667 118.486862,77.6929425 C118.486862,75.1305103 116.385668,73.029316 113.823236,73.029316 C113.413246,73.029316 113.054506,72.6705755 113.054506,72.2605863 C113.054506,71.8505972 113.413246,71.4918567 113.823236,71.4918567 C117.205646,71.4918567 120.024321,74.2592834 120.024321,77.6929425 C120.024321,78.9741585 119.614332,80.204126 118.896851,81.2803474 C118.743105,81.485342 118.538111,81.5878393 118.281868,81.5878393 Z" id="Shape" fill="#272F42"></path>
                <rect id="Rectangle-path" fill="#272F42" opacity="0.42" x="307.338111" y="174.501629" width="31.3641694" height="6.50857763"></rect>
                <g id="Group" transform="translate(342.340934, 101.984799)">
                    <g id="Shape">
                        <path d="M101.626059,58.8846906 L5.32985885,58.8846906 C3.17741585,58.8846906 1.434962,57.1422367 1.434962,54.9897937 L1.434962,5.22736156 C1.434962,3.07491857 3.17741585,1.33246471 5.32985885,1.33246471 L101.626059,1.33246471 C103.778502,1.33246471 105.520955,3.07491857 105.520955,5.22736156 L105.520955,54.9897937 C105.520955,57.1422367 103.778502,58.8846906 101.626059,58.8846906 Z" fill="#FFFFFF"></path>
                        <path d="M101.626059,59.9096634 L5.32985885,59.9096634 C2.61368078,59.9096634 0.409989142,57.7059718 0.409989142,54.9897937 L0.409989142,5.22736156 C0.409989142,2.5111835 2.61368078,0.307491857 5.32985885,0.307491857 L101.626059,0.307491857 C104.342237,0.307491857 106.545928,2.5111835 106.545928,5.22736156 L106.545928,54.9897937 C106.545928,57.7059718 104.342237,59.9096634 101.626059,59.9096634 Z M5.32985885,2.40868621 C3.74115092,2.40868621 2.45993485,3.68990228 2.45993485,5.27861021 L2.45993485,55.0410423 C2.45993485,56.6297503 3.74115092,57.9109663 5.32985885,57.9109663 L101.626059,57.9109663 C103.214767,57.9109663 104.495983,56.6297503 104.495983,55.0410423 L104.495983,5.27861021 C104.495983,3.68990228 103.214767,2.40868621 101.626059,2.40868621 L5.32985885,2.40868621 L5.32985885,2.40868621 Z" fill="#272F42"></path>
                    </g>
                    <path d="M106.545928,11.479696 L0.461237785,11.479696 L0.461237785,6.25233442 C0.461237785,3.02366992 3.07491857,0.358740499 6.3548317,0.358740499 L100.703583,0.358740499 C103.932248,0.358740499 106.597177,2.97242128 106.597177,6.25233442 L106.597177,11.479696 L106.545928,11.479696 Z M2.45993485,9.42975027 L104.444734,9.42975027 L104.444734,6.25233442 C104.444734,4.15114007 102.70228,2.40868621 100.601086,2.40868621 L6.30358306,2.40868621 C4.20238871,2.40868621 2.45993485,4.15114007 2.45993485,6.25233442 L2.45993485,9.42975027 Z" id="Shape" fill="#272F42"></path>
                    <g transform="translate(11.787188, 22.036916)">
                        <g>
                            <path d="M18.4495114,10.5059718 L1.02497286,10.5059718 C0.614983713,10.5059718 0.256243214,10.1472313 0.256243214,9.73724213 C0.256243214,9.32725299 0.614983713,8.96851249 1.02497286,8.96851249 L18.4495114,8.96851249 C18.8595005,8.96851249 19.218241,9.32725299 19.218241,9.73724213 C19.218241,10.1472313 18.8595005,10.5059718 18.4495114,10.5059718 Z" id="Shape" fill="#272F42" opacity="0.65"></path>
                            <g id="Rectangle-path" fill="#9E0059">
                                <rect x="7.68729642" y="0.0512486428" width="6.04733985" height="3.38241042"></rect>
                                <rect x="15.1695983" y="0.0512486428" width="3.74115092" height="3.38241042"></rect>
                                <rect x="4.15114007" y="0.0512486428" width="2.04994571" height="3.38241042"></rect>
                                <rect x="0.307491857" y="0.0512486428" width="2.40868621" height="3.38241042"></rect>
                                <rect x="20.3969598" y="0.0512486428" width="1.94744843" height="3.38241042"></rect>
                            </g>
                            <path d="M13.5808903,16.0920738 L1.02497286,16.0920738 C0.614983713,16.0920738 0.256243214,15.7333333 0.256243214,15.3233442 C0.256243214,14.913355 0.614983713,14.5546145 1.02497286,14.5546145 L13.632139,14.5546145 C14.0421281,14.5546145 14.4008686,14.913355 14.4008686,15.3233442 C14.4008686,15.7333333 14.0421281,16.0920738 13.5808903,16.0920738 Z" id="Shape" fill="#272F42" opacity="0.65"></path>
                            <path d="M18.4495114,21.6269273 L1.02497286,21.6269273 C0.614983713,21.6269273 0.256243214,21.2681868 0.256243214,20.8581976 C0.256243214,20.4482085 0.614983713,20.089468 1.02497286,20.089468 L18.4495114,20.089468 C18.8595005,20.089468 19.218241,20.4482085 19.218241,20.8581976 C19.218241,21.2681868 18.8595005,21.6269273 18.4495114,21.6269273 Z" id="Shape" fill="#272F42" opacity="0.65"></path>
                        </g>
                        <g transform="translate(30.236699, 0.000000)">
                            <path d="M15.3233442,10.5059718 L1.17871878,10.5059718 C0.768729642,10.5059718 0.409989142,10.1472313 0.409989142,9.73724213 C0.409989142,9.32725299 0.768729642,8.96851249 1.17871878,8.96851249 L15.3233442,8.96851249 C15.7333333,8.96851249 16.0920738,9.32725299 16.0920738,9.73724213 C16.0920738,10.1472313 15.7333333,10.5059718 15.3233442,10.5059718 Z" id="Shape" fill="#272F42" opacity="0.65"></path>
                            <g id="Rectangle-path" fill="#9E0059">
                                <rect x="7.84104235" y="0.0512486428" width="6.04733985" height="3.38241042"></rect>
                                <rect x="15.3233442" y="0.0512486428" width="3.74115092" height="3.38241042"></rect>
                                <rect x="4.30488599" y="0.0512486428" width="2.04994571" height="3.38241042"></rect>
                                <rect x="0.461237785" y="0.0512486428" width="2.40868621" height="3.38241042"></rect>
                                <rect x="20.5507058" y="0.0512486428" width="1.94744843" height="3.38241042"></rect>
                            </g>
                            <path d="M18.6032573,16.0920738 L1.17871878,16.0920738 C0.768729642,16.0920738 0.409989142,15.7333333 0.409989142,15.3233442 C0.409989142,14.913355 0.768729642,14.5546145 1.17871878,14.5546145 L18.6032573,14.5546145 C19.0132465,14.5546145 19.371987,14.913355 19.371987,15.3233442 C19.371987,15.7333333 19.0132465,16.0920738 18.6032573,16.0920738 Z" id="Shape" fill="#272F42" opacity="0.65"></path>
                            <path d="M15.3233442,21.6269273 L1.17871878,21.6269273 C0.768729642,21.6269273 0.409989142,21.2681868 0.409989142,20.8581976 C0.409989142,20.4482085 0.768729642,20.089468 1.17871878,20.089468 L15.3233442,20.089468 C15.7333333,20.089468 16.0920738,20.4482085 16.0920738,20.8581976 C16.0920738,21.2681868 15.7333333,21.6269273 15.3233442,21.6269273 Z" id="Shape" fill="#272F42" opacity="0.65"></path>
                        </g>
                        <g transform="translate(60.985885, 0.000000)">
                            <path d="M14.9646037,10.5059718 L0.819978284,10.5059718 C0.409989142,10.5059718 0.0512486428,10.1472313 0.0512486428,9.73724213 C0.0512486428,9.32725299 0.409989142,8.96851249 0.819978284,8.96851249 L14.9646037,8.96851249 C15.3745928,8.96851249 15.7333333,9.32725299 15.7333333,9.73724213 C15.7333333,10.1472313 15.4258415,10.5059718 14.9646037,10.5059718 Z" id="Shape" fill="#272F42" opacity="0.65"></path>
                            <g id="Rectangle-path" fill="#9E0059">
                                <rect x="7.48230185" y="0.0512486428" width="6.04733985" height="3.38241042"></rect>
                                <rect x="14.9646037" y="0.0512486428" width="3.74115092" height="3.38241042"></rect>
                                <rect x="3.94614549" y="0.0512486428" width="2.04994571" height="3.38241042"></rect>
                                <rect x="0.102497286" y="0.0512486428" width="2.40868621" height="3.38241042"></rect>
                                <rect x="20.1919653" y="0.0512486428" width="1.94744843" height="3.38241042"></rect>
                            </g>
                            <path d="M18.2445168,16.0920738 L0.819978284,16.0920738 C0.409989142,16.0920738 0.0512486428,15.7333333 0.0512486428,15.3233442 C0.0512486428,14.913355 0.409989142,14.5546145 0.819978284,14.5546145 L18.2445168,14.5546145 C18.654506,14.5546145 19.0132465,14.913355 19.0132465,15.3233442 C19.0132465,15.7333333 18.654506,16.0920738 18.2445168,16.0920738 Z" id="Shape" fill="#272F42" opacity="0.65"></path>
                            <path d="M10.5059718,21.6269273 L0.819978284,21.6269273 C0.409989142,21.6269273 0.0512486428,21.2681868 0.0512486428,20.8581976 C0.0512486428,20.4482085 0.409989142,20.089468 0.819978284,20.089468 L10.5059718,20.089468 C10.9159609,20.089468 11.2747014,20.4482085 11.2747014,20.8581976 C11.2747014,21.2681868 10.9159609,21.6269273 10.5059718,21.6269273 Z" id="Shape" fill="#272F42" opacity="0.65"></path>
                        </g>
                    </g>
                    <circle id="Oval" fill="#272F42" opacity="0.51" cx="7.12356135" cy="5.94484256" r="1.28121607"></circle>
                    <circle id="Oval" fill="#272F42" opacity="0.51" cx="12.0946797" cy="5.94484256" r="1.28121607"></circle>
                    <circle id="Oval" fill="#272F42" opacity="0.51" cx="17.065798" cy="5.94484256" r="1.28121607"></circle>
                </g>
                <g id="Group" transform="translate(212.681868, 55.348534)">
                    <g id="Shape">
                        <path d="M101.267318,58.7821933 L4.97111835,58.7821933 C2.81867535,58.7821933 1.0762215,57.0397394 1.0762215,54.8872964 L1.0762215,5.12486428 C1.0762215,2.97242128 2.81867535,1.22996743 4.97111835,1.22996743 L101.267318,1.22996743 C103.419761,1.22996743 105.162215,2.97242128 105.162215,5.12486428 L105.162215,54.8872964 C105.110966,57.0397394 103.368512,58.7821933 101.267318,58.7821933 Z" fill="#FFFFFF"></path>
                        <path d="M101.267318,59.8071661 L4.97111835,59.8071661 C2.25494028,59.8071661 0.0512486428,57.6034745 0.0512486428,54.8872964 L0.0512486428,5.12486428 C0.0512486428,2.40868621 2.25494028,0.204994571 4.97111835,0.204994571 L101.267318,0.204994571 C103.983496,0.204994571 106.187188,2.40868621 106.187188,5.12486428 L106.187188,54.8872964 C106.135939,57.6034745 103.932248,59.8071661 101.267318,59.8071661 Z M4.97111835,2.30618893 C3.38241042,2.30618893 2.10119435,3.58740499 2.10119435,5.17611292 L2.10119435,54.9385451 C2.10119435,56.527253 3.38241042,57.8084691 4.97111835,57.8084691 L101.267318,57.8084691 C102.856026,57.8084691 104.137242,56.527253 104.137242,54.9385451 L104.137242,5.17611292 C104.137242,3.58740499 102.856026,2.30618893 101.267318,2.30618893 L4.97111835,2.30618893 Z" fill="#272F42"></path>
                    </g>
                    <path d="M106.135939,11.3771987 L0.0512486428,11.3771987 L0.0512486428,6.14983713 C0.0512486428,2.92117264 2.66492942,0.256243214 5.94484256,0.256243214 L100.293594,0.256243214 C103.522258,0.256243214 106.187188,2.869924 106.187188,6.14983713 L106.187188,11.3771987 L106.135939,11.3771987 Z M2.10119435,9.32725299 L104.085993,9.32725299 L104.085993,6.14983713 C104.085993,4.04864278 102.34354,2.30618893 100.242345,2.30618893 L5.94484256,2.30618893 C3.84364821,2.30618893 2.10119435,4.04864278 2.10119435,6.14983713 L2.10119435,9.32725299 Z" id="Shape" fill="#272F42"></path>
                    <g transform="translate(11.274701, 14.349620)">
                        <g transform="translate(0.000000, 7.174810)">
                            <path d="M27.828013,10.9159609 L1.53745928,10.9159609 C1.12747014,10.9159609 0.768729642,10.5572204 0.768729642,10.1472313 C0.768729642,9.73724213 1.12747014,9.37850163 1.53745928,9.37850163 L27.828013,9.37850163 C28.2380022,9.37850163 28.5967427,9.73724213 28.5967427,10.1472313 C28.5967427,10.5572204 28.2380022,10.9159609 27.828013,10.9159609 Z" id="Shape" fill="#272F42" opacity="0.65"></path>
                            <g id="Rectangle-path" fill="#9E0059">
                                <rect x="11.5309446" y="0.461237785" width="9.12225841" height="3.38241042"></rect>
                                <rect x="22.8568947" y="0.461237785" width="5.63735071" height="3.38241042"></rect>
                                <rect x="6.25233442" y="0.461237785" width="3.12616721" height="3.38241042"></rect>
                                <rect x="0.409989142" y="0.461237785" width="3.63865364" height="3.38241042"></rect>
                                <rect x="30.7491857" y="0.461237785" width="2.92117264" height="3.38241042"></rect>
                            </g>
                            <path d="M20.4994571,16.502063 L1.48621064,16.502063 C1.0762215,16.502063 0.717480999,16.1433225 0.717480999,15.7333333 C0.717480999,15.3233442 1.0762215,14.9646037 1.48621064,14.9646037 L20.4994571,14.9646037 C20.9094463,14.9646037 21.2681868,15.3233442 21.2681868,15.7333333 C21.2681868,16.1433225 20.9094463,16.502063 20.4994571,16.502063 Z" id="Shape" fill="#272F42" opacity="0.65"></path>
                            <path d="M27.828013,22.088165 L1.53745928,22.088165 C1.12747014,22.088165 0.768729642,21.7294245 0.768729642,21.3194354 C0.768729642,20.9094463 1.12747014,20.5507058 1.53745928,20.5507058 L27.828013,20.5507058 C28.2380022,20.5507058 28.5967427,20.9094463 28.5967427,21.3194354 C28.5967427,21.7294245 28.2380022,22.088165 27.828013,22.088165 Z" id="Shape" fill="#272F42" opacity="0.65"></path>
                        </g>
                        <g transform="translate(40.998914, 0.000000)" id="Shape" fill="#272F42">
                            <path d="M33.4653637,18.0907709 L12.2996743,18.0907709 C11.8896851,18.0907709 11.5309446,17.7320304 11.5309446,17.3220413 C11.5309446,16.9120521 11.8896851,16.5533116 12.2996743,16.5533116 L33.4653637,16.5533116 C33.8753529,16.5533116 34.2340934,16.9120521 34.2340934,17.3220413 C34.2340934,17.7320304 33.8753529,18.0907709 33.4653637,18.0907709 Z" opacity="0.65"></path>
                            <path d="M38.3339848,23.676873 L12.2996743,23.676873 C11.8896851,23.676873 11.5309446,23.3181325 11.5309446,22.9081433 C11.5309446,22.4981542 11.8896851,22.1394137 12.2996743,22.1394137 L38.3852334,22.1394137 C38.7952226,22.1394137 39.1539631,22.4981542 39.1539631,22.9081433 C39.1539631,23.3181325 38.7952226,23.676873 38.3339848,23.676873 Z" opacity="0.65"></path>
                            <path d="M38.3339848,11.7871878 L12.2996743,11.7871878 C11.8896851,11.7871878 11.5309446,11.4284473 11.5309446,11.0184582 C11.5309446,10.6084691 11.8896851,10.2497286 12.2996743,10.2497286 L38.3852334,10.2497286 C38.7952226,10.2497286 39.1539631,10.6084691 39.1539631,11.0184582 C39.1539631,11.4284473 38.7952226,11.7871878 38.3339848,11.7871878 Z" opacity="0.65"></path>
                            <path d="M0.819978284,39.3589577 C0.409989142,39.3589577 0.0512486428,39.0002172 0.0512486428,38.590228 L0.0512486428,0.768729642 C0.0512486428,0.358740499 0.409989142,0 0.819978284,0 C1.22996743,0 1.58870793,0.358740499 1.58870793,0.768729642 L1.58870793,38.590228 C1.58870793,39.0002172 1.22996743,39.3589577 0.819978284,39.3589577 Z" opacity="0.25"></path>
                            <path d="M26.7517915,29.262975 L12.2996743,29.262975 C11.8896851,29.262975 11.5309446,28.9042345 11.5309446,28.4942454 C11.5309446,28.0842562 11.8896851,27.7255157 12.2996743,27.7255157 L26.8030402,27.7255157 C27.2130293,27.7255157 27.5717698,28.0842562 27.5717698,28.4942454 C27.5717698,28.9042345 27.2130293,29.262975 26.7517915,29.262975 Z" opacity="0.65"></path>
                        </g>
                    </g>
                    <circle id="Oval" fill="#272F42" opacity="0.51" cx="6.7135722" cy="5.84234528" r="1.28121607"></circle>
                    <circle id="Oval" fill="#272F42" opacity="0.51" cx="11.6846906" cy="5.84234528" r="1.28121607"></circle>
                    <circle id="Oval" fill="#272F42" opacity="0.51" cx="16.6558089" cy="5.84234528" r="1.28121607"></circle>
                </g>
                <g id="Group" transform="translate(358.228013, 23.061889)">
                    <g id="Shape">
                        <path d="M101.267318,58.9359392 L4.97111835,58.9359392 C2.81867535,58.9359392 1.0762215,57.1934853 1.0762215,55.0410423 L1.0762215,5.27861021 C1.0762215,3.12616721 2.81867535,1.38371336 4.97111835,1.38371336 L101.267318,1.38371336 C103.419761,1.38371336 105.162215,3.12616721 105.162215,5.27861021 L105.162215,55.0410423 C105.110966,57.1934853 103.368512,58.9359392 101.267318,58.9359392 Z" fill="#FFFFFF"></path>
                        <path d="M101.267318,59.9609121 L4.97111835,59.9609121 C2.25494028,59.9609121 0.0512486428,57.7572204 0.0512486428,55.0410423 L0.0512486428,5.27861021 C0.0512486428,2.56243214 2.25494028,0.358740499 4.97111835,0.358740499 L101.267318,0.358740499 C103.983496,0.358740499 106.187188,2.56243214 106.187188,5.27861021 L106.187188,55.0410423 C106.135939,57.7572204 103.932248,59.9609121 101.267318,59.9609121 Z M4.97111835,2.45993485 C3.38241042,2.45993485 2.10119435,3.74115092 2.10119435,5.32985885 L2.10119435,55.092291 C2.10119435,56.6809989 3.38241042,57.962215 4.97111835,57.962215 L101.267318,57.962215 C102.856026,57.962215 104.137242,56.6809989 104.137242,55.092291 L104.137242,5.32985885 C104.137242,3.74115092 102.856026,2.45993485 101.267318,2.45993485 L4.97111835,2.45993485 Z" fill="#272F42"></path>
                    </g>
                    <path d="M106.135939,11.5309446 L0.0512486428,11.5309446 L0.0512486428,6.30358306 C0.0512486428,3.07491857 2.66492942,0.409989142 5.94484256,0.409989142 L100.293594,0.409989142 C103.522258,0.409989142 106.187188,3.02366992 106.187188,6.30358306 L106.187188,11.5309446 L106.135939,11.5309446 Z M2.10119435,9.48099891 L104.085993,9.48099891 L104.085993,6.30358306 C104.085993,4.20238871 102.34354,2.45993485 100.242345,2.45993485 L5.94484256,2.45993485 C3.84364821,2.45993485 2.10119435,4.20238871 2.10119435,6.30358306 L2.10119435,9.48099891 Z" id="Shape" fill="#272F42"></path>
                    <g transform="translate(58.423453, 20.499457)" id="Shape" fill="#9E0059">
                        <path d="M13.8371336,24.4968512 L11.6334419,24.4968512 C11.0184582,24.4968512 10.5059718,23.9843648 10.5059718,23.3693811 L10.5059718,6.04733985 C10.5059718,5.43235613 11.0184582,4.91986971 11.6334419,4.91986971 L13.8371336,4.91986971 C14.4521173,4.91986971 14.9646037,5.43235613 14.9646037,6.04733985 L14.9646037,23.3693811 C14.9646037,23.9843648 14.4521173,24.4968512 13.8371336,24.4968512 Z"></path>
                        <path d="M23.9843648,24.4968512 L21.7806732,24.4968512 C21.1656895,24.4968512 20.653203,23.9843648 20.653203,23.3693811 L20.653203,1.53745928 C20.653203,0.92247557 21.1656895,0.409989142 21.7806732,0.409989142 L23.9843648,0.409989142 C24.5993485,0.409989142 25.111835,0.92247557 25.111835,1.53745928 L25.111835,23.3693811 C25.1630836,23.9843648 24.6505972,24.4968512 23.9843648,24.4968512 Z"></path>
                        <path d="M34.1828447,24.4968512 L31.9791531,24.4968512 C31.3641694,24.4968512 30.851683,23.9843648 30.851683,23.3693811 L30.851683,12.2484256 C30.851683,11.6334419 31.3641694,11.1209555 31.9791531,11.1209555 L34.1828447,11.1209555 C34.7978284,11.1209555 35.3103149,11.6334419 35.3103149,12.2484256 L35.3103149,23.3693811 C35.3615635,23.9843648 34.8490771,24.4968512 34.1828447,24.4968512 Z"></path>
                        <path d="M3.74115092,24.4968512 L1.53745928,24.4968512 C0.92247557,24.4968512 0.409989142,23.9843648 0.409989142,23.3693811 L0.409989142,12.2484256 C0.409989142,11.6334419 0.92247557,11.1209555 1.53745928,11.1209555 L3.74115092,11.1209555 C4.35613464,11.1209555 4.86862106,11.6334419 4.86862106,12.2484256 L4.86862106,23.3693811 C4.86862106,23.9843648 4.35613464,24.4968512 3.74115092,24.4968512 Z"></path>
                    </g>
                    <circle id="Oval" fill="#272F42" opacity="0.51" cx="6.7135722" cy="5.99609121" r="1.28121607"></circle>
                    <circle id="Oval" fill="#272F42" opacity="0.51" cx="11.6846906" cy="5.99609121" r="1.28121607"></circle>
                    <circle id="Oval" fill="#272F42" opacity="0.51" cx="16.6558089" cy="5.99609121" r="1.28121607"></circle>
                    <g transform="translate(6.662324, 21.524430)">
                        <g transform="translate(0.000000, 8.712269)" id="Shape">
                            <path d="M40.5376764,3.99739414 L40.5376764,3.33116178 C40.5376764,2.61368078 39.9739414,2.04994571 39.2564604,2.04994571 L3.53615635,2.04994571 C2.81867535,2.04994571 2.25494028,2.61368078 2.25494028,3.33116178 L2.25494028,3.99739414 C2.25494028,4.71487514 2.81867535,5.27861021 3.53615635,5.27861021 L39.2564604,5.27861021 C39.9739414,5.32985885 40.5376764,4.71487514 40.5376764,3.99739414 Z" fill="#FFFFFF"></path>
                            <path d="M39.2564604,2.10119435 C39.9739414,2.10119435 40.5376764,2.66492942 40.5376764,3.38241042 L40.5376764,4.04864278 C40.5376764,4.76612378 39.9739414,5.32985885 39.2564604,5.32985885 L3.53615635,5.32985885 C2.81867535,5.32985885 2.25494028,4.76612378 2.25494028,4.04864278 L2.25494028,3.38241042 C2.25494028,2.66492942 2.81867535,2.10119435 3.53615635,2.10119435 L39.2564604,2.10119435 L39.2564604,2.10119435 Z M39.2564604,0.0512486428 L3.53615635,0.0512486428 C1.69120521,0.0512486428 0.204994571,1.53745928 0.204994571,3.38241042 L0.204994571,4.04864278 C0.204994571,5.89359392 1.69120521,7.37980456 3.53615635,7.37980456 L39.2564604,7.37980456 C41.1014115,7.37980456 42.5876221,5.89359392 42.5876221,4.04864278 L42.5876221,3.38241042 C42.5876221,1.53745928 41.1014115,0.0512486428 39.2564604,0.0512486428 L39.2564604,0.0512486428 Z" fill="#272F42"></path>
                        </g>
                        <g transform="translate(8.199783, 0.000000)">
                            <rect id="Rectangle-path" fill="#AEB1BA" x="1.17871878" y="1.38371336" width="3.84364821" height="22.088165"></rect>
                            <path d="M6.04733985,24.4968512 L0.153745928,24.4968512 L0.153745928,0.358740499 L6.04733985,0.358740499 L6.04733985,24.4968512 Z M2.20369164,22.4469055 L3.99739414,22.4469055 L3.99739414,2.40868621 L2.20369164,2.40868621 L2.20369164,22.4469055 Z" id="Shape" fill="#272F42"></path>
                        </g>
                        <g transform="translate(4.099891, 2.562432)">
                            <g>
                                <rect id="Rectangle-path" fill="#AEB1BA" x="1.33246471" y="1.38371336" width="3.84364821" height="16.9633008"></rect>
                                <path d="M6.20108578,19.371987 L0.307491857,19.371987 L0.307491857,0.358740499 L6.20108578,0.358740499 L6.20108578,19.371987 Z M2.35743757,17.3220413 L4.15114007,17.3220413 L4.15114007,2.40868621 L2.35743757,2.40868621 L2.35743757,17.3220413 Z" id="Shape" fill="#272F42"></path>
                            </g>
                            <g transform="translate(28.186754, 0.000000)">
                                <rect id="Rectangle-path" fill="#AEB1BA" x="1.17871878" y="1.38371336" width="3.84364821" height="16.9633008"></rect>
                                <path d="M6.04733985,19.371987 L0.153745928,19.371987 L0.153745928,0.358740499 L6.04733985,0.358740499 L6.04733985,19.371987 Z M2.20369164,17.3220413 L3.99739414,17.3220413 L3.99739414,2.40868621 L2.20369164,2.40868621 L2.20369164,17.3220413 Z" id="Shape" fill="#272F42"></path>
                            </g>
                        </g>
                        <g transform="translate(28.186754, 0.000000)">
                            <rect id="Rectangle-path" fill="#AEB1BA" x="1.434962" y="1.38371336" width="3.84364821" height="22.088165"></rect>
                            <path d="M6.30358306,24.4968512 L0.409989142,24.4968512 L0.409989142,0.358740499 L6.30358306,0.358740499 L6.30358306,24.4968512 Z M2.45993485,22.4469055 L4.25363735,22.4469055 L4.25363735,2.40868621 L2.45993485,2.40868621 L2.45993485,22.4469055 Z" id="Shape" fill="#272F42"></path>
                        </g>
                        <rect id="Rectangle-path" fill="#272F42" opacity="0.43" x="13.2221498" y="10.0959826" width="4.35613464" height="5.07361564"></rect>
                    </g>
                </g>
                <path d="M330.04126,223.187839 C330.04126,223.187839 347.875787,211.195657 369.29772,221.957872 L353.564387,210.221933 L345.620847,210.939414 L330.04126,223.187839 Z" id="Shape" fill="#272F42" opacity="0.44"></path>
                <path d="M209.658198,281.098806 C212.476873,297.805863 220.676656,310.669273 223.495331,314.666667 L230.823887,314.666667 C230.823887,314.666667 219.805429,299.394571 216.218024,284.224973 C215.2443,280.17633 218.421716,276.281433 222.572856,276.281433 L272.745277,276.281433 C277.511401,276.281433 281.970033,274.180239 284.993702,270.695331 L218.472964,270.695331 C212.938111,270.695331 208.735722,275.66645 209.658198,281.098806 Z" id="Shape" fill="#272F42" opacity="0.39"></path>
                <path d="M229.542671,136.475136 L227.69772,136.475136 C227.082736,136.475136 226.621498,136.013898 226.621498,135.398914 L226.621498,133.553963 C226.621498,132.990228 226.211509,132.426493 225.647774,132.375244 C224.930293,132.272747 224.315309,132.836482 224.315309,133.502714 L224.315309,135.398914 C224.315309,136.013898 223.854072,136.475136 223.239088,136.475136 L221.394137,136.475136 C220.830402,136.475136 220.266667,136.885125 220.215418,137.44886 C220.112921,138.166341 220.676656,138.781325 221.342888,138.781325 L223.239088,138.781325 C223.854072,138.781325 224.315309,139.242562 224.315309,139.857546 L224.315309,141.702497 C224.315309,142.266232 224.725299,142.829967 225.289034,142.881216 C226.006515,142.983713 226.621498,142.419978 226.621498,141.753746 L226.621498,139.857546 C226.621498,139.242562 227.082736,138.781325 227.69772,138.781325 L229.59392,138.781325 C230.311401,138.781325 230.823887,138.166341 230.72139,137.44886 C230.618893,136.885125 230.106406,136.475136 229.542671,136.475136 Z" id="Shape" fill="#ED0F62" opacity="0.32"></path>
                <path d="M315.845385,32.4403909 L314.000434,32.4403909 C313.385451,32.4403909 312.924213,31.9791531 312.924213,31.3641694 L312.924213,29.5192182 C312.924213,28.9554832 312.514224,28.3917481 311.950489,28.3404995 C311.233008,28.2380022 310.618024,28.8017372 310.618024,29.4679696 L310.618024,31.3641694 C310.618024,31.9791531 310.156786,32.4403909 309.541802,32.4403909 L307.696851,32.4403909 C307.133116,32.4403909 306.569381,32.85038 306.518132,33.4141151 C306.415635,34.1315961 306.97937,34.7465798 307.645603,34.7465798 L309.541802,34.7465798 C310.156786,34.7465798 310.618024,35.2078176 310.618024,35.8228013 L310.618024,37.6677524 C310.618024,38.2314875 311.028013,38.7952226 311.591748,38.8464712 C312.309229,38.9489685 312.924213,38.3852334 312.924213,37.7190011 L312.924213,35.8228013 C312.924213,35.2078176 313.385451,34.7465798 314.000434,34.7465798 L315.896634,34.7465798 C316.614115,34.7465798 317.126602,34.1315961 317.024104,33.4141151 C316.972856,32.85038 316.460369,32.4403909 315.845385,32.4403909 Z" id="Shape" fill="#ED0F62" opacity="0.32"></path>
                <path d="M470.308795,122.945494 L468.463844,122.945494 C467.84886,122.945494 467.387622,122.484256 467.387622,121.869273 L467.387622,120.024321 C467.387622,119.460586 466.977633,118.896851 466.413898,118.845603 C465.696417,118.743105 465.081433,119.30684 465.081433,119.973073 L465.081433,121.869273 C465.081433,122.484256 464.620195,122.945494 464.005212,122.945494 L462.160261,122.945494 C461.596526,122.945494 461.03279,123.355483 460.981542,123.919218 C460.879045,124.636699 461.44278,125.251683 462.109012,125.251683 L464.005212,125.251683 C464.620195,125.251683 465.081433,125.712921 465.081433,126.327904 L465.081433,128.172856 C465.081433,128.736591 465.491422,129.300326 466.055157,129.351574 C466.772638,129.454072 467.387622,128.890337 467.387622,128.224104 L467.387622,126.327904 C467.387622,125.712921 467.84886,125.251683 468.463844,125.251683 L470.360043,125.251683 C471.077524,125.251683 471.590011,124.636699 471.487514,123.919218 C471.436265,123.304235 470.87253,122.945494 470.308795,122.945494 Z" id="Shape" fill="#ED0F62" opacity="0.32"></path>
                <path d="M57.962215,243.636048 C57.962215,243.636048 40.4351792,216.320521 49.9161781,174.347883 C49.9161781,174.347883 48.3787188,196.692291 66.9307275,240.458632 L57.962215,243.636048 Z" id="Shape" fill="#272F42" opacity="0.41"></path>
                <path d="M122.176764,102.753529 C122.176764,102.753529 120.895548,124.687948 132.887731,129.607818 L137.243865,117.666884 C137.243865,117.666884 126.225407,112.080782 122.176764,102.753529 Z" id="Shape" fill="#272F42" opacity="0.41"></path>
                <path d="M160.613246,89.3263844 C160.408252,89.3263844 160.203257,89.2751357 160.049511,89.1213898 C159.74202,88.8138979 159.74202,88.3526602 160.049511,88.0451683 L160.203257,87.8914224 C161.484473,86.6102063 163.329425,85.9952226 165.123127,86.3539631 C165.533116,86.4052117 165.840608,86.8152009 165.738111,87.22519 C165.686862,87.6351792 165.276873,87.942671 164.866884,87.8401737 C163.585668,87.5839305 162.201954,88.0451683 161.279479,88.9676439 L161.125733,89.1213898 C161.023236,89.2238871 160.818241,89.3263844 160.613246,89.3263844 Z" id="Shape" fill="#272F42" opacity="0.47"></path>
                <path d="M140.113789,94.5537459 C139.960043,94.5537459 139.755049,94.5024973 139.601303,94.3487514 C139.293811,94.0925081 139.242562,93.5800217 139.550054,93.2725299 L140.370033,92.3500543 C141.087514,91.4788274 142.163735,91.0175896 143.291205,91.0175896 L144.62367,91.0175896 C145.033659,91.0175896 145.3924,91.3763301 145.3924,91.7863192 C145.3924,92.1963084 145.033659,92.5550489 144.62367,92.5550489 L143.291205,92.5550489 C142.624973,92.5550489 141.95874,92.8625407 141.548751,93.3750271 L140.728773,94.2975027 C140.523779,94.4512486 140.318784,94.5537459 140.113789,94.5537459 Z" id="Shape" fill="#272F42" opacity="0.47"></path>
            </g>
        </g>
    </g>
</svg>