<?xml version="1.0" encoding="UTF-8" standalone="no"?>
<svg width="411px" height="351px" viewBox="0 0 411 351" version="1.1" xmlns="http://www.w3.org/2000/svg" xmlns:xlink="http://www.w3.org/1999/xlink">
    <!-- Generator: Sketch 46.2 (44496) - http://www.bohemiancoding.com/sketch -->
    <title>teamup_illustrations-01</title>
    <desc>Created with Sketch.</desc>
    <defs></defs>
    <g id="Page-1" stroke="none" stroke-width="1" fill="none" fill-rule="evenodd">
        <g id="HomePage-Desktop-Mockup" transform="translate(-834.000000, -3016.000000)" fill-rule="nonzero">
            <g id="teamup_illustrations-01" transform="translate(834.000000, 3016.000000)">
                <g id="Group" opacity="0.44" transform="translate(287.296069, 75.232187)">
                    <g id="Shape">
                        <path d="M62.407371,37.7170762 L3.07997543,37.7170762 C2.12063882,37.7170762 1.31277641,36.9092138 1.31277641,35.9498771 L1.31277641,3.07997543 C1.31277641,2.12063882 2.12063882,1.31277641 3.07997543,1.31277641 L62.4578624,1.31277641 C63.417199,1.31277641 64.2250614,2.12063882 64.2250614,3.07997543 L64.2250614,35.9498771 C64.17457,36.9092138 63.417199,37.7170762 62.407371,37.7170762 Z" fill="#FFFFFF"></path>
                        <path d="M62.407371,38.7269042 L3.07997543,38.7269042 C1.56523342,38.7269042 0.302948403,37.4646192 0.302948403,35.9498771 L0.302948403,3.07997543 C0.302948403,1.56523342 1.56523342,0.302948403 3.07997543,0.302948403 L62.4578624,0.302948403 C63.9726044,0.302948403 65.2348894,1.56523342 65.2348894,3.07997543 L65.2348894,35.9498771 C65.184398,37.4646192 63.9726044,38.7269042 62.407371,38.7269042 Z M3.07997543,2.32260442 C2.67604423,2.32260442 2.32260442,2.67604423 2.32260442,3.07997543 L2.32260442,35.9498771 C2.32260442,36.3538084 2.67604423,36.7072482 3.07997543,36.7072482 L62.4578624,36.7072482 C62.8617936,36.7072482 63.2152334,36.3538084 63.2152334,35.9498771 L63.2152334,3.07997543 C63.2152334,2.67604423 62.8617936,2.32260442 62.4578624,2.32260442 L3.07997543,2.32260442 Z" fill="#272F42"></path>
                    </g>
                    <polygon id="Shape" fill="#ED0F62" points="28.2246929 28.2246929 22.317199 22.317199 24.8922604 19.7421376 28.2246929 23.0240786 38.2724816 12.9762899 40.847543 15.5513514"></polygon>
                </g>
                <g id="Group" opacity="0.29" transform="translate(41.402948, 266.594595)" fill="#9E0059">
                    <path d="M16.510688,22.3676904 C17.268059,25.4476658 18.1264128,27.7702703 18.9847666,29.5374693 C19.2372236,30.0423833 19.792629,30.2443489 20.297543,30.0423833 C24.2358722,28.5781327 28.5276413,26.7099509 32.8699017,24.4378378 C31.6581081,22.1657248 30.4463145,19.1867322 29.4869779,15.2484029 C25.6496314,17.3185504 21.4588452,19.3382064 17.1670762,21.1054054 C16.6621622,21.307371 16.4097052,21.8627764 16.510688,22.3676904 Z" id="Shape"></path>
                    <path d="M53.2684275,0.100982801 C53.2684275,0.100982801 45.5937346,6.10945946 34.4351351,12.5218673 C35.2429975,16.1067568 36.2023342,18.782801 37.1616708,20.7519656 C37.4141278,21.307371 38.1210074,21.5093366 38.6259214,21.1558968 C47.0074939,16.005774 55.0861179,9.13894349 60.8421376,0.100982801 L53.2684275,0.100982801 L53.2684275,0.100982801 Z" id="Shape"></path>
                    <path d="M10.0982801,23.7814496 C6.91732187,24.8922604 3.63538084,25.8011057 0.403931204,26.5079853 C1.06031941,29.4869779 1.96916462,32.3144963 3.18095823,35.0410319 C3.18095823,35.0410319 6.36191646,34.5361179 12.9762899,32.4659705 C13.5821867,32.2640049 13.8851351,31.6076167 13.6326781,31.0522113 C12.8248157,29.2345209 12.0674447,27.0633907 11.4110565,24.4378378 C11.3100737,23.9329238 10.7041769,23.579484 10.0982801,23.7814496 Z" id="Shape"></path>
                </g>
                <g id="Group" transform="translate(8.078624, 101.487715)">
                    <path d="M13.7841523,209.286855 C20.55,187.878501 35.4954545,147.636855 51.0468059,151.120762 L51.8546683,126.077027 C52.0566339,119.159705 51.0972973,112.242383 49.1281327,105.577518 C39.6357494,73.9194103 42.867199,39.3832924 42.867199,39.3832924 C42.9681818,17.015602 36.2528256,7.42223587 29.5374693,3.38292383 C21.8627764,-1.26228501 11.9664619,1.51474201 7.37174447,9.23992629 C-7.01830467,33.2738329 8.48255528,91.9953317 8.48255528,91.9953317 C21.0044226,134.307125 15.6018428,193.382064 13.7841523,209.286855 Z" id="Shape" fill="#AEB1BA"></path>
                    <path d="M14.7434889,209.589803 L12.7743243,209.185872 C14.6425061,192.321744 19.8936118,134.155651 7.47272727,92.2477887 C6.81633907,89.8242015 -7.97764128,32.8194103 6.46289926,8.68452088 C9.64385749,3.38292383 15.3493857,0.100982801 21.4083538,0.100982801 C24.4378378,0.100982801 27.4168305,0.908845209 29.9918919,2.47407862 C36.3538084,6.31142506 43.9275184,15.8038084 43.8265356,39.332801 L43.8265356,39.4337838 C43.7760442,39.7872236 40.7465602,74.1213759 50.0874693,105.27457 C52.1576167,112.191892 53.0664619,119.159705 52.8644963,126.077027 L52.0061425,152.332555 L50.7943489,152.080098 C50.2389435,151.979115 49.6835381,151.878133 49.1281327,151.878133 C38.9288698,151.928624 26.3565111,172.933047 14.7434889,209.589803 Z M21.4588452,2.12063882 C16.1067568,2.12063882 11.0576167,5.04914005 8.23009828,9.74484029 C-5.75601966,33.1728501 9.29041769,91.1369779 9.44189189,91.6923833 C20.2470516,128.147174 17.772973,176.770393 15.7028256,200.299386 C23.2765356,178.386118 35.6974201,149.908968 49.1786241,149.908968 C49.4815725,149.908968 49.7845209,149.908968 50.0874693,149.959459 L50.8448403,126.077027 C51.0468059,119.361671 50.1379607,112.595823 48.1687961,105.930958 C38.8783784,74.9797297 41.7058968,40.847543 41.857371,39.3832924 C41.9583538,21.5093366 37.5151106,9.39140049 29.0325553,4.29176904 C26.7099509,2.87800983 24.084398,2.12063882 21.4588452,2.12063882 Z" id="Shape" fill="#272F42"></path>
                </g>
                <path d="M51.7031941,179.042506 C20.1460688,206.610811 34.6371007,240.742998 34.6371007,240.742998 L36.9092138,246.297052 L55.1366093,248.013759 L55.1366093,211.912408 L55.1366093,199.491523 C53.5208845,192.52371 52.4100737,185.606388 51.7031941,179.042506 Z" id="Shape" fill="#272F42" opacity="0.23"></path>
                <path d="M286.286241,242.459705 C282.448894,237.562039 276.490909,234.431572 269.775553,234.431572 C261.192015,234.431572 253.82027,239.581695 250.538329,247.003931 C250.538329,247.003931 257.152703,235.693857 286.286241,242.459705 Z" id="Shape" fill="#AEB1BA" opacity="0.53"></path>
                <g id="Group" transform="translate(195.401720, 107.546683)">
                    <path d="M9.59336609,1.06031941 L3.48390663,1.06031941 C2.17113022,1.06031941 1.16130221,2.12063882 1.16130221,3.38292383 L1.16130221,4.84717445 C1.16130221,6.15995086 2.22162162,7.16977887 3.48390663,7.16977887 L9.59336609,7.16977887 C10.9061425,7.16977887 11.9159705,6.10945946 11.9159705,4.84717445 L11.9159705,3.38292383 C11.9664619,2.12063882 10.9061425,1.06031941 9.59336609,1.06031941 Z" id="Shape" fill="#AEB1BA"></path>
                    <path d="M9.59336609,8.17960688 L3.48390663,8.17960688 C1.61572482,8.17960688 0.151474201,6.66486486 0.151474201,4.84717445 L0.151474201,3.38292383 C0.151474201,1.51474201 1.66621622,0.0504914005 3.48390663,0.0504914005 L9.59336609,0.0504914005 C11.4615479,0.0504914005 12.9257985,1.56523342 12.9257985,3.38292383 L12.9257985,4.84717445 C12.9762899,6.71535627 11.4615479,8.17960688 9.59336609,8.17960688 Z M3.48390663,2.07014742 C2.77702703,2.07014742 2.17113022,2.67604423 2.17113022,3.38292383 L2.17113022,4.84717445 C2.17113022,5.55405405 2.77702703,6.15995086 3.48390663,6.15995086 L9.59336609,6.15995086 C10.3002457,6.15995086 10.9061425,5.55405405 10.9061425,4.84717445 L10.9061425,3.38292383 C10.9061425,2.67604423 10.3002457,2.07014742 9.59336609,2.07014742 L3.48390663,2.07014742 Z" id="Shape" fill="#272F42"></path>
                </g>
                <path d="M151.07027,134.408108 L119.664619,110.879115 L118.149877,99.8214988 L118.907248,99.5690418 C119.008231,99.5185504 130.419287,95.3277641 130.065848,88.2084767 L130.065848,88.1579853 L130.065848,88.1074939 L131.126167,60.7411548 L143.042138,46.3006143 L164.702948,43.6750614 L185.050983,43.6750614 L189.595209,52.7635135 L191.008968,54.8841523 L196.462039,61.902457 C199.188575,65.3863636 199.239066,70.2840295 196.613514,73.8184275 C196.411548,74.0708845 196.462039,74.3233415 196.462039,74.4243243 C196.512531,74.5757985 196.563022,74.7777641 196.815479,74.9292383 C198.582678,75.9390663 199.895455,77.7062654 200.349877,79.67543 L204.641646,93.0556511 C204.894103,94.0654791 204.692138,95.1257985 204.086241,95.9841523 C203.530835,96.8425061 202.62199,97.3979115 201.561671,97.5493857 L201.460688,97.5493857 L195.300737,97.953317 C194.795823,98.0542998 194.442383,98.4077396 194.290909,98.9126536 L192.776167,110.222727 C192.725676,110.475184 192.675184,110.727641 192.574201,110.980098 C190.504054,118.048894 184.748034,122.94656 178.588084,122.94656 C178.588084,122.94656 178.588084,122.94656 178.588084,122.94656 C176.719902,122.94656 174.902211,122.492138 173.084521,121.684275 L170.913391,120.674447 C169.499631,119.967568 167.934398,119.614128 166.369165,119.614128 C164.147543,119.614128 162.026904,120.321007 160.259705,121.684275 C154.857125,125.774079 151.726658,129.661916 151.272236,132.842875 L151.07027,134.408108 Z M121.583292,109.768305 L149.707002,130.87371 C150.817813,127.490786 153.94828,123.855405 159.098403,119.967568 C161.219042,118.351843 163.743612,117.493489 166.470147,117.493489 C168.338329,117.493489 170.206511,117.947912 171.923219,118.755774 L174.094349,119.765602 C175.609091,120.472482 177.174324,120.825921 178.689066,120.825921 C183.990663,120.825921 188.938821,116.483661 190.756511,110.32371 C190.807002,110.121744 190.857494,109.919779 190.907985,109.717813 L192.422727,98.4077396 C192.725676,97.0949631 193.785995,96.0851351 195.149263,95.8831695 L195.250246,95.8831695 L201.410197,95.4792383 C201.864619,95.3782555 202.26855,95.1257985 202.521007,94.7723587 C202.773464,94.3684275 202.874447,93.9644963 202.773464,93.5100737 L198.481695,80.1298526 C198.128256,78.665602 197.21941,77.403317 195.906634,76.6459459 C195.199754,76.2420147 194.745332,75.5856265 194.593857,74.7777641 C194.442383,74.0203931 194.593857,73.1620393 195.098771,72.5561425 C197.21941,69.7286241 197.168919,65.8407862 194.997789,63.0637592 L189.494226,55.9444717 L187.928993,53.6218673 L183.940172,45.5937346 L164.904914,45.5937346 L144.253931,48.1183047 L133.297297,61.397543 L132.287469,88.0570025 C132.590418,95.5297297 123.3,99.9224816 120.522973,101.083784 L121.583292,109.768305 Z" id="Shape" fill="#272F42"></path>
                <g id="Group" transform="translate(170.156020, 92.399263)">
                    <path d="M11.0071253,19.3382064 C8.93697789,19.3382064 6.96781327,19.035258 5.45307125,18.6818182 C3.23144963,18.1769042 1.46425061,16.6116708 0.908845209,14.5920147 C-1.00982801,7.67469287 2.92850123,1.11081081 3.13046683,0.858353808 C3.23144963,0.656388206 3.43341523,0.555405405 3.63538084,0.504914005 C3.83734644,0.454422604 4.08980344,0.504914005 4.24127764,0.656388206 C9.69434889,5.09963145 16.6621622,6.61437346 20.3480344,7.11928747 C20.7519656,7.16977887 21.054914,7.57371007 21.0044226,7.97764128 C20.9539312,8.38157248 20.55,8.68452088 20.1460688,8.63402948 C16.4601966,8.12911548 9.64385749,6.61437346 4.03931204,2.42358722 C3.13046683,4.24127764 1.06031941,9.18943489 2.42358722,14.2385749 C2.82751843,15.7028256 4.14029484,16.8641278 5.80651106,17.268059 C8.23009828,17.8234644 11.7644963,18.277887 14.9959459,17.4195332 C15.3998771,17.3185504 15.8038084,17.5710074 15.9047912,17.9749386 C16.005774,18.3788698 15.753317,18.782801 15.3493857,18.8837838 C13.9356265,19.1867322 12.4208845,19.3382064 11.0071253,19.3382064 Z" id="Shape" fill="#272F42"></path>
                    <path d="M14.1375921,6.56388206 C10.7546683,5.55405405 7.01830467,3.93832924 3.73636364,1.26228501 C3.73636364,1.26228501 -0.201965602,7.72518428 1.61572482,14.3900491 C2.12063882,16.1572482 3.63538084,17.520516 5.60454545,17.9244472 C7.22027027,18.277887 9.34090909,18.5808354 11.6130221,18.530344 C9.9468059,12.8753071 12.0674447,8.88648649 14.1375921,6.56388206 Z" id="Shape" fill="#9E0059"></path>
                    <g transform="translate(1.009828, 0.504914)" id="Shape">
                        <path d="M14.8444717,11.8654791 C14.8444717,11.8654791 17.6214988,7.11928747 17.3690418,7.06879607 C17.3690418,7.06879607 17.3690418,7.06879607 17.3690418,7.06879607 C13.2792383,6.31142506 7.47272727,4.59471744 2.77702703,0.757371007 C2.77702703,0.757371007 1.71670762,2.47407862 0.959336609,5.09963145 C0.959336609,5.15012285 6.00847666,10.0477887 14.8444717,11.8654791 Z" fill="#FFFFFF"></path>
                        <path d="M14.8444717,12.6228501 C14.7939803,12.6228501 14.7434889,12.6228501 14.6929975,12.6228501 C5.65503686,10.7546683 0.454422604,5.70552826 0.403931204,5.65503686 C0.201965602,5.45307125 0.151474201,5.15012285 0.201965602,4.89766585 C1.00982801,2.22162162 2.07014742,0.454422604 2.12063882,0.403931204 C2.22162162,0.201965602 2.42358722,0.100982801 2.62555283,0.0504914005 C2.82751843,-9.85322934e-16 3.07997543,0.0504914005 3.23144963,0.201965602 C7.87665848,3.98882064 13.5316953,5.65503686 17.520516,6.36191646 L17.520516,6.36191646 C17.6719902,6.36191646 17.772973,6.46289926 17.8739558,6.51339066 C17.9749386,6.56388206 18.02543,6.66486486 18.0759214,6.76584767 C18.277887,7.16977887 18.3283784,7.37174447 15.50086,12.2189189 C15.3493857,12.5218673 15.0969287,12.6228501 14.8444717,12.6228501 Z M1.76719902,4.84717445 C2.97899263,5.90749386 7.47272727,9.44189189 14.4405405,11.0071253 C15.1474201,9.74484029 15.9047912,8.43206388 16.3087224,7.67469287 C12.4713759,6.86683047 7.37174447,5.25110565 2.97899263,1.91867322 C2.67604423,2.57506143 2.17113022,3.58488943 1.76719902,4.84717445 Z" fill="#272F42"></path>
                    </g>
                    <g transform="translate(0.000000, 10.603194)" id="Shape">
                        <path d="M14.1375921,7.72518428 C14.0871007,7.62420147 11.2595823,-1.71670762 1.26228501,1.81769042 C1.36326781,2.47407862 1.46425061,3.18095823 1.66621622,3.83734644 C2.17113022,5.60454545 3.68587224,6.96781327 5.65503686,7.37174447 C7.82616708,7.87665848 11.0576167,8.28058968 14.1375921,7.72518428 Z" fill="#ED91B6"></path>
                        <path d="M10.9566339,8.73501229 C10.9566339,8.73501229 10.9566339,8.73501229 10.9566339,8.73501229 C9.18943489,8.73501229 7.32125307,8.53304668 5.45307125,8.07862408 C3.23144963,7.57371007 1.46425061,6.00847666 0.908845209,3.98882064 C0.706879607,3.33243243 0.605896806,2.62555283 0.504914005,1.81769042 C0.454422604,1.46425061 0.656388206,1.11081081 1.00982801,1.00982801 C2.57506143,0.454422604 4.08980344,0.151474201 5.50356265,0.151474201 C12.6228501,0.151474201 14.7939803,7.11928747 14.8949631,7.42223587 C14.9454545,7.62420147 14.9454545,7.82616708 14.7939803,8.02813268 C14.6425061,8.23009828 14.4910319,8.33108108 14.2890663,8.38157248 C13.2287469,8.63402948 12.1179361,8.73501229 10.9566339,8.73501229 Z M2.07014742,2.32260442 C2.12063882,2.77702703 2.22162162,3.23144963 2.32260442,3.63538084 C2.72653563,5.09963145 4.03931204,6.26093366 5.70552826,6.66486486 C7.47272727,7.06879607 9.29041769,7.27076167 10.9061425,7.27076167 C11.6635135,7.27076167 12.3703931,7.22027027 13.0267813,7.11928747 C12.2694103,5.45307125 10.1487715,1.76719902 5.40257985,1.76719902 C4.44324324,1.76719902 3.28194103,1.91867322 2.07014742,2.32260442 Z" fill="#272F42"></path>
                    </g>
                </g>
                <path d="M174.043857,72.5056511 L177.174324,71.0414005 C178.992015,70.1830467 181.011671,69.8296069 183.031327,69.8800983 C185.252948,69.9810811 188.231941,70.1830467 190.554545,70.5869779 C191.968305,70.8394349 193.331572,69.8800983 193.634521,68.4663391 L193.634521,68.4663391 C193.937469,66.9011057 192.826658,65.436855 191.261425,65.2853808 C190.302088,65.184398 189.090295,65.0834152 187.82801,65.0834152 C182.273956,65.0329238 177.02285,67.5574939 173.538943,71.8492629 L173.538943,71.8492629 C173.286486,72.2027027 173.639926,72.6571253 174.043857,72.5056511 Z" id="Shape" fill="#272F42"></path>
                <circle id="Oval" fill="#272F42" cx="185.101474" cy="76.6964373" r="2.42358722"></circle>
                <path d="M198.784644,112.696806 L194.997789,112.696806 C191.160442,112.696806 187.525061,111.182064 184.798526,108.455528 L155.160074,78.8170762 C154.756143,78.413145 154.756143,77.8072482 155.160074,77.403317 C155.564005,76.9993857 156.169902,76.9993857 156.573833,77.403317 L186.212285,107.041769 C188.534889,109.364373 191.665356,110.67715 194.947297,110.67715 L198.734152,110.67715 C199.289558,110.67715 199.74398,111.131572 199.74398,111.686978 C199.74398,112.242383 199.340049,112.696806 198.784644,112.696806 Z" id="Shape" fill="#272F42"></path>
                <path d="M129.459951,89.7737101 C129.459951,89.7737101 135.720885,88.0570025 150.312899,74.7777641 L158.744963,72.5056511 L161.723956,78.160688 C162.329853,79.3219902 163.541646,79.9783784 164.854423,79.8773956 L164.854423,79.8773956 C166.419656,79.7259214 167.63145,78.5141278 167.782924,76.9488943 C168.085872,72.4551597 167.782924,63.5181818 161.017076,58.115602 C161.017076,58.115602 178.487101,59.0244472 194.038452,55.3385749 C210.852088,51.2992629 210.90258,27.1643735 194.038452,23.3775184 C193.685012,23.2765356 193.331572,23.2260442 192.978133,23.1755528 C192.978133,23.1755528 196.966953,26.7604423 197.118428,32.3144963 C197.118428,32.3144963 191.261425,24.7407862 181.971007,21.9132678 C181.971007,21.9132678 179.698894,31.7590909 173.993366,33.4757985 L173.993366,33.4757985 C170.812408,30.6987715 166.419656,29.7899263 162.329853,31.0017199 L154.402703,33.3748157 L156.018428,32.9708845 C153.443366,32.7689189 150.868305,33.5262899 148.747666,35.0915233 L145.66769,37.3636364 C145.66769,37.3636364 142.133292,32.7689189 133.347789,31.5066339 L139.103808,37.818059 L139.103808,37.818059 C125.370147,40.595086 116.736118,54.4802211 120.573464,67.9614251 C121.532801,71.3948403 123.148526,74.9797297 125.572113,78.665602 C127.844226,81.8465602 129.157002,85.734398 129.459951,89.7737101 L129.459951,89.7737101 Z" id="Shape" fill="#ED0F62"></path>
                <path d="M165.409828,111.535504 C163.642629,109.364373 162.127887,107.041769 160.865602,104.56769 C158.593489,100.023464 159.451843,94.4694103 163.036732,90.8845209 C165.763268,88.1074939 167.479975,84.2701474 167.479975,80.0288698 C167.479975,74.2728501 164.349509,69.2742015 159.7043,66.6486486 C159.552826,63.6191646 159.451843,60.5896806 159.451843,57.5601966 C159.451843,48.1687961 160.259705,38.9288698 161.723956,29.9918919 C151.171253,30.3958231 148.949631,36.4042998 145.768673,37.2626536 C144.657862,45.4422604 144.20344,49.1786241 144.20344,57.5601966 C144.20344,60.5896806 144.304423,63.6191646 144.405405,66.6486486 C139.50774,69.4761671 136.27629,74.8787469 136.62973,81.0386978 C137.084152,88.6124079 143.193612,94.7723587 150.71683,95.4287469 C150.767322,95.4287469 150.817813,95.4287469 150.868305,95.4287469 C152.484029,95.5297297 153.544349,97.1454545 152.938452,98.6601966 C150.363391,105.375553 147.990295,115.72629 151.120762,127.288821 C153.140418,124.663268 155.917445,122.239681 158.542998,120.220025 L158.542998,120.220025 C162.22887,117.392506 167.177027,116.938084 171.367813,119.008231 L165.409828,111.535504 Z" id="Shape" fill="#272F42" opacity="0.19"></path>
                <g id="Group" transform="translate(35.848894, 107.041769)">
                    <path d="M72.5561425,1.06031941 C72.5561425,1.06031941 -7.27076167,75.0807125 1.81769042,178.386118 L1.81769042,178.386118 C2.77702703,181.819533 6.46289926,183.687715 9.8458231,182.475921 L35.4954545,173.235995 C38.7773956,172.074693 42.1603194,171.216339 45.644226,170.711425 L48.8756757,170.257002 C59.8323096,168.691769 69.9810811,163.592138 77.8072482,155.765971 L77.8072482,155.765971 L80.8872236,147.939803 C83.2603194,141.931327 84.4216216,135.56941 84.4216216,129.157002 L84.4216216,126.379975 C84.4216216,120.674447 85.5829238,115.069902 87.8045455,109.818796 L105.224079,69.2742015 C108.405037,61.8014742 110.576167,53.9248157 111.636486,45.896683 L114.564988,23.4785012 C114.615479,23.4280098 93.8130221,3.18095823 72.5561425,1.06031941 Z" id="Shape" fill="#FCACD1"></path>
                    <path d="M7.72518428,183.839189 C4.54422604,183.839189 1.71670762,181.71855 0.858353808,178.638575 L0.807862408,178.436609 C-1.26228501,154.756143 1.16130221,130.621253 8.07862408,106.789312 C13.5821867,87.7035627 21.9637592,68.7692875 32.9203931,50.4409091 C51.6022113,19.287715 71.6977887,0.504914005 71.8997543,0.302948403 L72.2531941,5.68434189e-14 L72.7076167,0.0504914005 C94.0654791,2.22162162 114.564988,21.9132678 115.423342,22.7211302 L115.776781,23.07457 L112.747297,45.9976658 C111.686978,54.1267813 109.465356,62.1044226 106.233907,69.6781327 L88.8143735,110.222727 C86.5927518,115.37285 85.481941,120.77543 85.481941,126.379975 L85.481941,129.157002 C85.481941,135.720885 84.2701474,142.183784 81.8465602,148.293243 L78.7160934,156.321376 L78.5646192,156.47285 C70.6374693,164.4 60.135258,169.651106 49.0271499,171.216339 L45.7957002,171.670762 C42.4127764,172.175676 39.080344,172.983538 35.8488943,174.14484 L10.1992629,183.384767 C9.39140049,183.687715 8.53304668,183.839189 7.72518428,183.839189 Z M2.82751843,178.184152 C3.48390663,180.355283 5.50356265,181.819533 7.72518428,181.819533 C8.33108108,181.819533 8.88648649,181.71855 9.49238329,181.516585 L35.1420147,172.276658 C38.4744472,171.064865 41.9583538,170.206511 45.4927518,169.701597 L48.7242015,169.247174 C59.3273956,167.732432 69.3246929,162.733784 76.9488943,155.210565 L79.927887,147.586364 C82.2504914,141.67887 83.4117936,135.518919 83.4117936,129.157002 L83.4117936,126.379975 C83.4117936,120.522973 84.5730958,114.817445 86.8957002,109.414865 L104.315233,68.8702703 C107.496192,61.4985258 109.61683,53.7228501 110.67715,45.7452088 L113.55516,23.831941 C110.727641,21.2063882 91.8943489,4.24127764 72.9095823,2.12063882 C70.2335381,4.69570025 51.8546683,22.7716216 34.5866093,51.5517199 C17.520516,80.0288698 -1.81769042,125.168182 2.82751843,178.184152 Z" id="Shape" fill="#272F42"></path>
                </g>
                <path d="M99.2660934,176.871376 L92.9041769,199.945946 C90.3796069,209.034398 91.1874693,218.728747 95.1257985,227.261794 L95.1257985,227.261794 C97.8523342,233.118796 99.0641278,239.531204 98.7611794,245.994103 L97.3474201,273.764373 C103.406388,271.189312 108.960442,267.50344 113.656143,262.80774 L116.736118,254.981572 C119.109214,248.973096 120.270516,242.611179 120.270516,236.198771 L120.270516,233.421744 C120.270516,227.716216 121.431818,222.111671 123.65344,216.860565 L130.16683,201.662654 C124.966216,191.261425 117.190541,174.801229 117.190541,174.801229 L99.2660934,176.871376 Z" id="Shape" fill="#272F42" opacity="0.14"></path>
                <g id="Group" transform="translate(272.148649, 230.240786)">
                    <path d="M6.56388206,1.16130221 C6.56388206,1.16130221 18.6818182,6.41240786 22.6706388,15.3493857 L20.3985258,15.6018428 C18.277887,16.005774 16.1572482,15.1474201 14.9454545,13.3802211 C12.7238329,10.1487715 8.23009828,5.25110565 0.706879607,4.19078624 L0.706879607,1.16130221 L6.56388206,1.16130221 Z" id="Shape" fill="#AEB1BA"></path>
                    <path d="M19.4391892,16.4601966 C17.4195332,16.4601966 15.50086,15.4503686 14.3900491,13.8346437 C12.4208845,10.9566339 8.07862408,6.00847666 0.706879607,4.99864865 L0.0504914005,4.89766585 L0.0504914005,0.454422604 L6.81633907,0.454422604 L6.96781327,0.504914005 C7.47272727,0.706879607 19.3886978,5.95798526 23.4785012,15.0464373 L23.9329238,16.005774 L20.6509828,16.3592138 C20.1965602,16.4097052 19.792629,16.4601966 19.4391892,16.4601966 Z M1.51474201,3.53439803 C9.08845209,4.84717445 13.5821867,9.9468059 15.6018428,12.9257985 C16.4601966,14.1880835 17.8739558,14.8949631 19.3886978,14.8949631 C19.6916462,14.8949631 19.9945946,14.8444717 20.2470516,14.7939803 L20.297543,14.7939803 L21.5093366,14.6929975 C17.520516,7.16977887 7.67469287,2.52457002 6.36191646,1.91867322 L1.51474201,1.91867322 L1.51474201,3.53439803 Z" id="Shape" fill="#272F42"></path>
                </g>
                <g id="Group" transform="translate(145.920147, 123.703931)">
                    <path d="M8.28058968,0.959336609 C8.28058968,0.959336609 10.1487715,10.3507371 13.4812039,15.8038084 C14.0366093,16.7126536 13.2792383,17.8234644 12.2694103,17.6719902 C8.53304668,17.1165848 2.52457002,15.753317 1.31277641,13.0267813 C1.26228501,13.0267813 0.151474201,3.53439803 8.28058968,0.959336609 Z" id="Shape" fill="#AA527E"></path>
                    <path d="M12.4208845,18.4293612 C12.3199017,18.4293612 12.2189189,18.4293612 12.1179361,18.4293612 C7.57371007,17.7224816 1.86818182,16.258231 0.555405405,13.3297297 L0.504914005,13.2287469 L0.504914005,13.1277641 C0.504914005,13.0267813 -0.605896806,3.02948403 8.02813268,0.252457002 L8.83599509,0 L8.98746929,0.858353808 C8.98746929,0.959336609 10.8556511,10.1992629 14.0871007,15.4503686 C14.4910319,16.1067568 14.4910319,16.8641278 14.1375921,17.4700246 C13.8346437,18.0759214 13.1782555,18.4293612 12.4208845,18.4293612 Z M2.01965602,12.8248157 C2.87800983,14.5415233 6.66486486,16.0562654 12.3703931,16.9651106 C12.6733415,17.015602 12.8248157,16.8136364 12.8753071,16.7126536 C12.9257985,16.6621622 12.9762899,16.4601966 12.8753071,16.2077396 C10.0477887,11.6130221 8.33108108,4.44324324 7.77567568,1.96916462 C1.51474201,4.54422604 1.91867322,11.7644963 2.01965602,12.8248157 Z" id="Shape" fill="#272F42"></path>
                </g>
                <g id="Group" transform="translate(132.792383, 201.965602)">
                    <path d="M27.4168305,2.01965602 L44.7353808,6.56388206 C47.7143735,7.37174447 50.6933661,8.23009828 53.6723587,9.23992629 L103.860811,26.1040541 C106.536855,27.0128993 109.414865,27.1643735 112.1414,26.5079853 L135.670393,19.792629 C136.730713,19.540172 137.841523,19.6411548 138.851351,20.0955774 C143.49656,22.1657248 163.339681,31.5571253 171.165848,37.7170762 L170.509459,38.1714988 C169.045209,39.1813268 165.005897,40.7970516 163.541646,39.837715 C157.432187,35.9498771 136.730713,25.2457002 119.917076,40.0396806 C116.029238,43.4226044 110.67715,44.5334152 105.779484,42.9176904 L97.953317,41.352457 C97.953317,41.352457 55.5910319,40.595086 28.2246929,37.4141278 C22.064742,36.7072482 16.0562654,35.3944717 10.1487715,33.5262899 L1.86818182,30.9007371 C1.86818182,30.9007371 9.8963145,9.59336609 24.3873464,1.16130221 L27.4168305,2.01965602 Z" id="Shape" fill="#FFFFFF"></path>
                    <path d="M110.273219,44.634398 C108.657494,44.634398 107.041769,44.381941 105.476536,43.877027 L97.7513514,42.3117936 C95.5297297,42.2613022 54.5307125,41.4534398 28.0227273,38.3734644 C21.9132678,37.6665848 15.753317,36.3538084 9.74484029,34.4351351 L0.403931204,31.5066339 L0.757371007,30.4968059 C1.11081081,29.5879607 9.08845209,8.73501229 23.7309582,0.201965602 L24.1348894,1.13686838e-13 L27.6692875,1.06031941 L44.9373464,5.60454545 C47.9668305,6.41240786 50.9963145,7.27076167 53.9248157,8.28058968 L104.113268,25.1447174 C106.587346,25.9525799 109.263391,26.1040541 111.838452,25.5486486 L135.417936,18.782801 C136.680221,18.4798526 138.043489,18.6313268 139.204791,19.1362408 C143.749017,21.1558968 163.844595,30.6987715 171.721253,36.9092138 L172.781572,37.7675676 L170.963882,39.0298526 C169.651106,39.9386978 166.722604,41.1504914 164.652457,41.1504914 C163.945577,41.1504914 163.339681,40.9990172 162.834767,40.6960688 C160.158722,38.9793612 150.615848,33.4757985 139.709705,33.4757985 C132.438943,33.4757985 125.925553,35.9498771 120.42199,40.7970516 C117.695455,43.2711302 114.060074,44.634398 110.273219,44.634398 Z M3.13046683,30.2443489 L10.4012285,32.5164619 C16.258231,34.3846437 22.317199,35.6469287 28.2751843,36.3538084 C55.2880835,39.4842752 97.4988943,40.2921376 97.9028256,40.2921376 L98.1047912,40.2921376 L106.082432,41.9078624 C107.4457,42.362285 108.859459,42.5642506 110.32371,42.5642506 C113.605651,42.5642506 116.786609,41.352457 119.260688,39.1813268 C125.168182,33.9807125 132.085504,31.3551597 139.911671,31.3551597 C151.322727,31.3551597 161.320025,37.1111794 164.097052,38.8783784 C164.147543,38.9288698 164.349509,39.0298526 164.803931,39.0298526 C166.167199,39.0298526 168.237346,38.2219902 169.44914,37.565602 C161.067568,31.5066339 142.789681,22.822113 138.497912,20.9034398 C137.690049,20.55 136.831695,20.4490172 135.973342,20.6509828 L112.444349,27.4168305 C109.515848,28.0732187 106.435872,27.9217445 103.608354,26.9624079 L53.4199017,10.0982801 C50.4914005,9.13894349 47.5124079,8.23009828 44.5839066,7.47272727 L27.2653563,2.92850123 L24.5388206,2.12063882 C12.4208845,9.44189189 4.89766585,26.0030713 3.13046683,30.2443489 Z" id="Shape" fill="#272F42"></path>
                </g>
                <path d="M224.484767,239.02629 L221.404791,238.67285 C201.561671,238.470885 187.626044,236.50172 177.881204,234.027641 C165.510811,230.897174 158.694472,217.567445 163.339681,205.701966 L163.642629,204.894103 L163.642629,204.894103 L160.209214,203.985258 L157.078747,203.076413 C142.587715,211.508477 134.559582,232.815848 134.559582,232.815848 L142.840172,235.4414 C148.747666,237.309582 154.806634,238.622359 160.916093,239.329238 C188.282432,242.510197 230.644717,243.267568 230.644717,243.267568 L238.470885,244.832801 C243.36855,246.448526 248.720639,245.337715 252.608477,241.954791 C259.020885,236.299754 266.039189,234.381081 272.603071,234.381081 C261.292998,233.27027 253.214373,234.734521 247.862285,236.451229 C240.339066,238.975799 232.361425,239.884644 224.484767,239.02629 Z" id="Shape" fill="#272F42" opacity="0.17"></path>
                <path d="M283.963636,251.2957 L255.032064,251.2957 C253.264865,251.2957 251.598649,250.588821 250.386855,249.377027 C249.679975,248.670147 249.47801,247.609828 249.881941,246.700983 C253.365848,238.824324 261.192015,233.674201 269.826044,233.674201 C278.207617,233.674201 285.983292,238.622359 289.51769,246.196069 C289.921622,247.104914 289.770147,248.215725 289.063268,248.922604 L288.659337,249.326536 C287.34656,250.588821 285.730835,251.2957 283.963636,251.2957 Z M269.775553,235.188943 C261.74742,235.188943 254.476658,239.935135 251.245209,247.30688 C251.093735,247.660319 251.144226,248.013759 251.396683,248.266216 C252.35602,249.225553 253.618305,249.730467 254.981572,249.730467 L283.913145,249.730467 C285.276413,249.730467 286.538698,249.225553 287.498034,248.266216 L287.901966,247.862285 C288.154423,247.609828 288.204914,247.205897 288.05344,246.852457 C284.82199,239.783661 277.60172,235.188943 269.775553,235.188943 Z" id="Shape" fill="#272F42"></path>
                <g id="Group" transform="translate(218.627764, 230.240786)">
                    <path d="M1.71670762,14.3395577 L9.64385749,14.7434889 C10.4517199,14.7939803 11.2090909,14.3395577 11.5120393,13.5821867 C12.6228501,11.1081081 14.9959459,5.60454545 15.1474201,3.18095823 L4.08980344,1.16130221 C4.08980344,1.16130221 3.18095823,7.57371007 1.16130221,13.4307125 C1.00982801,13.8346437 1.26228501,14.2890663 1.71670762,14.3395577 Z" id="Shape" fill="#AEB1BA"></path>
                    <path d="M9.74484029,15.753317 C9.74484029,15.753317 9.74484029,15.753317 9.74484029,15.753317 C9.69434889,15.753317 9.64385749,15.753317 9.59336609,15.753317 L1.61572482,15.3493857 C1.11081081,15.2988943 0.656388206,14.9959459 0.403931204,14.5920147 C0.151474201,14.1375921 0.0504914005,13.6326781 0.252457002,13.1277641 C2.22162162,7.47272727 3.13046683,1.11081081 3.13046683,1.06031941 L3.28194103,1.13686838e-13 L16.258231,2.37309582 L16.2077396,3.28194103 C16.0562654,5.85700246 13.8346437,11.1081081 12.5218673,14.0366093 C11.9664619,15.0969287 10.9061425,15.753317 9.74484029,15.753317 Z M2.27211302,13.3802211 L9.74484029,13.7841523 C10.0982801,13.7841523 10.4517199,13.5821867 10.6031941,13.2287469 C12.3703931,9.23992629 13.6326781,5.95798526 13.9861179,4.03931204 L4.89766585,2.37309582 C4.59471744,4.34226044 3.73636364,8.93697789 2.27211302,13.3802211 Z" id="Shape" fill="#272F42"></path>
                </g>
                <g id="Group" transform="translate(220.647420, 220.647420)" fill="#272F42">
                    <path d="M2.52457002,12.1179361 L12.5218673,14.1880835 C13.6831695,14.4405405 14.8949631,13.7336609 15.1979115,12.5723587 C15.6523342,10.9061425 16.2077396,8.53304668 16.1572482,6.51339066 C16.1067568,5.55405405 15.6018428,4.64520885 14.7939803,4.19078624 C13.0267813,3.18095823 9.29041769,1.41375921 4.03931204,0.858353808 C2.92850123,0.757371007 1.91867322,1.41375921 1.56523342,2.47407862 C1.16130221,3.78685504 0.706879607,6.10945946 0.706879607,9.9972973 C0.757371007,11.0071253 1.46425061,11.9159705 2.52457002,12.1179361 Z" id="Shape"></path>
                    <path d="M12.9762899,14.7434889 L12.9762899,14.7434889 C12.7743243,14.7434889 12.5723587,14.7434889 12.4208845,14.6929975 L2.42358722,12.6228501 C1.16130221,12.3703931 0.252457002,11.2595823 0.252457002,9.9468059 C0.252457002,6.66486486 0.555405405,4.08980344 1.11081081,2.27211302 C1.51474201,1.00982801 2.77702703,0.151474201 4.08980344,0.302948403 C9.44189189,0.908845209 13.2287469,2.67604423 15.0464373,3.68587224 C16.005774,4.24127764 16.6621622,5.30159705 16.6621622,6.46289926 C16.7126536,8.53304668 16.1572482,11.0071253 15.7028256,12.6733415 C15.3493857,13.8851351 14.2385749,14.7434889 12.9762899,14.7434889 Z M3.78685504,1.36326781 C2.97899263,1.36326781 2.32260442,1.86818182 2.07014742,2.62555283 C1.71670762,3.78685504 1.26228501,6.00847666 1.26228501,9.9972973 C1.26228501,10.8051597 1.81769042,11.5120393 2.62555283,11.6635135 L12.6228501,13.7336609 C13.5316953,13.9356265 14.4910319,13.3297297 14.6929975,12.4713759 C15.1474201,10.8556511 15.7028256,8.53304668 15.6523342,6.56388206 C15.6523342,5.75601966 15.1979115,5.04914005 14.5415233,4.64520885 C12.8248157,3.68587224 9.13894349,1.96916462 3.98882064,1.36326781 C3.93832924,1.36326781 3.83734644,1.36326781 3.78685504,1.36326781 Z" id="Shape"></path>
                </g>
                <path d="M87.5015971,186.76769 L87.8045455,186.868673 C91.4399263,188.332924 94.4694103,190.907985 96.3880835,194.290909 C102.598526,204.995086 117.998403,229.28145 133.196314,235.693857 C135.518919,236.653194 138.194963,235.895823 139.659214,233.876167 L145.061794,226.554914 C147.788329,222.869042 150.009951,218.779238 151.625676,214.436978 C152.938452,210.953071 155.715479,206.257371 161.572482,203.076413 C161.925921,202.874447 162.178378,202.521007 162.178378,202.117076 L162.178378,202.117076 C162.178378,200.349877 160.714128,198.885627 158.946929,198.885627 L158.946929,198.885627 C157.432187,198.885627 156.169902,197.875799 155.816462,196.411548 L155.765971,196.310565 C155.412531,194.795823 154.049263,193.785995 152.534521,193.836486 L149.807985,193.886978 C148.242752,193.937469 146.879484,192.87715 146.576536,191.362408 L139.861179,160.158722 C137.740541,150.312899 132.539926,141.375921 125.016708,134.660565 L120.371499,130.52027 C120.321007,130.469779 73.0610565,138.548403 87.5015971,186.76769 Z" id="Shape" fill="#F9C7E1"></path>
                <path d="M135.316953,237.2086 C134.509091,237.2086 133.650737,237.057125 132.842875,236.703686 C117.291523,230.139803 101.588698,205.247543 95.5802211,194.846314 C93.7625307,191.715848 90.8845209,189.191278 87.4511057,187.82801 L87.1481572,187.727027 L87.9055283,185.858845 L88.2084767,185.959828 C92.0458231,187.47457 95.2772727,190.251597 97.2969287,193.836486 C103.204423,204.035749 118.6043,228.473587 133.600246,234.835504 C135.468428,235.643366 137.639558,235.037469 138.851351,233.371253 L144.253931,226.05 C146.929975,222.465111 149.101106,218.47629 150.71683,214.184521 C152.080098,210.599631 154.958108,205.651474 161.118059,202.26855 C161.16855,202.26855 161.16855,202.218059 161.16855,202.167568 C161.16855,200.955774 160.158722,199.945946 158.946929,199.945946 C156.977764,199.945946 155.261057,198.582678 154.806634,196.664005 L154.756143,196.563022 C154.503686,195.553194 153.59484,194.795823 152.534521,194.846314 L149.807985,194.896806 C147.788329,194.947297 145.970639,193.533538 145.566708,191.564373 L138.851351,160.360688 C136.781204,150.615848 131.732064,141.981818 124.309828,135.367445 L119.664619,131.22715 L121.027887,129.712408 L125.673096,133.852703 C133.39828,140.770025 138.649386,149.757494 140.871007,159.906265 L147.586364,191.160442 C147.788329,192.220762 148.747666,192.927641 149.807985,192.927641 L152.534521,192.87715 C154.554177,192.826658 156.321376,194.189926 156.775799,196.159091 L156.82629,196.260074 C157.078747,197.269902 157.937101,197.976781 158.99742,197.976781 C161.320025,197.976781 163.238698,199.895455 163.238698,202.218059 C163.238698,202.97543 162.834767,203.68231 162.127887,204.086241 C156.523342,207.166216 153.897789,211.659951 152.635504,214.941892 C150.969287,219.385135 148.697174,223.52543 145.920147,227.261794 L140.517568,234.583047 C139.255283,236.249263 137.286118,237.2086 135.316953,237.2086 Z" id="Shape" fill="#272F42"></path>
                <path d="M124.309828,217.920885 L122.643612,216.810074 C130.52027,204.995086 144.20344,195.553194 144.758845,195.149263 L145.920147,196.815479 C145.768673,196.916462 131.984521,206.459337 124.309828,217.920885 Z" id="Shape" fill="#272F42" opacity="0.44"></path>
                <path d="M71.7987715,324.710197 C47.8153563,318.802703 41.6554054,300.120885 40.1406634,289.51769 L42.1603194,289.214742 C43.62457,299.313022 49.4815725,317.136486 72.3036855,322.741032 L71.7987715,324.710197 Z" id="Shape" fill="#272F42"></path>
                <path d="M216.153686,324.710197 C215.59828,324.710197 215.143857,324.255774 215.143857,323.700369 L215.143857,318.600737 C215.143857,314.258477 213.528133,310.118182 210.599631,306.836241 C190.150614,284.115111 164.652457,274.72371 146.879484,270.886364 C127.541278,266.695577 112.84828,267.907371 112.696806,267.907371 C112.1414,267.957862 111.636486,267.553931 111.585995,266.998526 C111.535504,266.44312 111.939435,265.938206 112.49484,265.887715 C112.646314,265.887715 127.591769,264.62543 147.182432,268.866708 C165.308845,272.805037 191.261425,282.29742 212.063882,305.472973 C215.345823,309.108354 217.113022,313.753563 217.113022,318.600737 L217.113022,323.700369 C217.163514,324.255774 216.709091,324.710197 216.153686,324.710197 Z" id="Shape" fill="#272F42"></path>
                <g id="Group" transform="translate(0.000000, 92.904177)">
                    <path d="M26.2050369,17.1670762 C26.2050369,17.1670762 47.1589681,8.83599509 49.0271499,67.0020885 C49.1281327,69.4256757 49.2796069,71.7987715 49.5825553,74.2223587 C50.2894349,80.432801 51.6527027,92.4497543 52.2081081,98.963145 L54.0762899,95.4792383 L56.5503686,90.4805897 C56.1969287,83.0583538 55.2880835,62.6093366 55.2375921,55.1366093 C55.1366093,34.5361179 46.14914,-2.72653563 20.7519656,1.61572482 C20.7519656,1.61572482 -28.1237101,9.44189189 29.7899263,147.636855 C29.7899263,147.636855 35.3944717,160.310197 36.808231,175.508108 L42.614742,163.895086 C41.6554054,158.189558 40.2921376,152.585012 38.4744472,147.030958 C22.7211302,98.8621622 1.26228501,20.802457 26.2050369,17.1670762 Z" id="Shape" fill="#FFFFFF"></path>
                    <path d="M36.1518428,179.092998 L35.7984029,175.5586 C34.3846437,160.663636 28.9315725,148.141769 28.8810811,147.990295 C-5.85700246,65.1339066 -2.47407862,28.5781327 6.46289926,12.5218673 C12.3199017,2.01965602 20.2470516,0.656388206 20.6004914,0.605896806 C22.0142506,0.353439803 23.4280098,0.252457002 24.7407862,0.252457002 C34.9905405,0.252457002 43.4730958,7.27076167 49.2796069,20.4995086 C54.3792383,32.1630221 56.1969287,46.0481572 56.2474201,55.1366093 C56.2979115,63.2152334 57.358231,85.9363636 57.5601966,90.4300983 L57.5601966,90.6825553 L54.9346437,95.9336609 L51.4507371,102.39656 L51.1477887,99.0641278 C50.5418919,92.6517199 49.2291155,80.8367322 48.5222359,74.3738329 C48.2192875,71.8492629 48.0678133,69.4256757 47.9668305,67.1030713 C46.5025799,22.6201474 34.0816953,17.8234644 28.7800983,17.8234644 C27.3663391,17.8234644 26.5079853,18.1769042 26.4574939,18.1769042 L26.2555283,18.2273956 C23.2765356,18.6818182 21.054914,20.1965602 19.3382064,22.9735872 C7.67469287,41.7563882 26.9119165,108.607002 39.3832924,146.778501 C41.2009828,152.282064 42.614742,158.038084 43.5740786,163.794103 L43.62457,164.097052 L36.1518428,179.092998 Z M24.7912776,2.22162162 C23.5289926,2.22162162 22.2667076,2.32260442 20.9539312,2.57506143 C20.8529484,2.57506143 13.5316953,3.93832924 8.23009828,13.6326781 C-0.454422604,29.3355037 -3.53439803,65.2853808 30.7997543,147.232924 C30.8502457,147.333907 35.6469287,158.341032 37.5151106,172.024201 L41.6554054,163.743612 C40.6960688,158.189558 39.332801,152.685995 37.6160934,147.384398 C22.2162162,100.376904 6.31142506,40.4436118 17.772973,21.9132678 C19.792629,18.6818182 22.569656,16.763145 26.0535627,16.258231 C26.4070025,16.1572482 27.4673219,15.8038084 28.9820639,15.8038084 C32.3144963,15.8038084 37.2121622,17.3185504 41.5039312,24.4378378 C46.6035627,32.9203931 49.4815725,47.2599509 50.1379607,67.0020885 C50.1884521,69.2742015 50.3904177,71.6472973 50.6428747,74.1213759 C51.2487715,79.6249386 52.3090909,88.9153563 52.9654791,95.5802211 L53.2684275,95.0248157 L55.6415233,90.2786241 C55.3890663,85.229484 54.3792383,63.1142506 54.3287469,55.1366093 C54.2782555,46.2501229 52.4605651,32.6679361 47.5124079,21.307371 C43.6750614,12.5723587 36.6567568,2.22162162 24.7912776,2.22162162 Z" id="Shape" fill="#272F42"></path>
                </g>
                <path d="M47.9668305,307.745086 C47.9668305,307.745086 66.3457002,311.885381 97.70086,309.562776 C110.121744,308.653931 122.643612,309.259828 134.862531,311.531941 C143.950983,313.248649 153.2414,315.874201 158.99742,320.014496 L76.9488943,323.700369 L62.5083538,320.317445 C62.5588452,320.317445 51.3497543,313.854545 47.9668305,307.745086 Z" id="Shape" fill="#272F42" opacity="0.13"></path>
                <g id="Group" transform="translate(39.383292, 314.561425)">
                    <path d="M105.829975,24.841769 L36.555774,24.841769 C27.1643735,24.841769 17.8739558,23.4280098 8.93697789,20.6004914 L5.25110565,19.4391892 C2.87800983,18.6818182 1.21179361,16.4601966 1.21179361,13.9861179 L1.21179361,13.9861179 C1.21179361,11.1585995 3.23144963,8.78550369 6.00847666,8.33108108 C25.4476658,5.09963145 98.5592138,-5.70552826 126.127518,8.02813268 C129.05602,9.49238329 129.712408,13.4307125 127.389803,15.8038084 L127.389803,15.8038084 C121.684275,21.559828 113.9086,24.841769 105.829975,24.841769 Z" id="Shape" fill="#AEB1BA"></path>
                    <path d="M105.829975,25.8515971 L36.555774,25.8515971 C27.0633907,25.8515971 17.6719902,24.4378378 8.63402948,21.559828 L4.94815725,20.3985258 C2.12063882,19.4896806 0.201965602,16.9146192 0.201965602,13.9861179 C0.201965602,10.6536855 2.57506143,7.87665848 5.85700246,7.32125307 C18.782801,5.20061425 52.1576167,0.201965602 82.0990172,0.201965602 C102.447052,0.201965602 117.392506,2.52457002 126.581941,7.06879607 C128.248157,7.92714988 129.409459,9.44189189 129.712408,11.3100737 C130.015356,13.2287469 129.459951,15.0969287 128.096683,16.4601966 C122.290172,22.4181818 114.161057,25.8515971 105.829975,25.8515971 Z M82.0990172,2.22162162 C52.2585995,2.22162162 19.0857494,7.16977887 6.15995086,9.29041769 C3.88783784,9.64385749 2.22162162,11.6130221 2.22162162,13.9356265 C2.22162162,16.005774 3.53439803,17.8234644 5.55405405,18.4293612 L9.23992629,19.5906634 C18.0759214,22.3676904 27.2653563,23.7814496 36.555774,23.7814496 L105.829975,23.7814496 C113.605651,23.7814496 121.229853,20.6004914 126.682924,15.0464373 C127.591769,14.1375921 127.945209,12.9257985 127.743243,11.6635135 C127.541278,10.4517199 126.783907,9.44189189 125.673096,8.88648649 C116.786609,4.49373464 102.144103,2.22162162 82.0990172,2.22162162 Z" id="Shape" fill="#272F42"></path>
                </g>
                <path d="M164.248526,332.586855 C135.619902,328.850491 43.0691646,333.243243 43.0691646,333.243243 C43.5235872,333.546192 44.0285012,333.84914 44.634398,334.000614 L48.3202703,335.161916 C57.2572482,337.938943 66.5981572,339.403194 75.9390663,339.403194 L145.213268,339.403194 C152.181081,339.403194 158.896437,336.979607 164.248526,332.586855 Z" id="Shape" fill="#272F42" opacity="0.23"></path>
                <g id="Group" transform="translate(10.603194, 245.893120)">
                    <path d="M89.1678133,100.780835 C85.0275184,102.497543 80.5842752,103.45688 75.9895577,103.45688 L24.6902948,103.45688 C8.38157248,103.45688 -2.82751843,87.1481572 2.97899263,71.9502457 L22.3676904,21.3578624 C26.9624079,9.34090909 38.5249386,1.41375921 51.4002457,1.41375921 L85.1285012,1.41375921 C87.6025799,1.41375921 89.2183047,3.98882064 88.1074939,6.21044226 L88.1074939,6.21044226 C85.8353808,10.9566339 81.0386978,13.9861179 75.7875921,13.9861179 L50.5923833,13.9861179 C43.119656,13.9861179 36.3538084,18.6313268 33.7282555,25.59914 L16.9651106,69.6276413 C12.5723587,81.190172 21.1054054,93.5605651 33.4757985,93.5605651 L100.124447,93.5605651 L100.124447,93.5605651" id="Shape" fill="#FFFFFF"></path>
                    <path d="M75.9895577,104.466708 L24.6902948,104.466708 C16.6116708,104.466708 9.29041769,100.629361 4.74619165,93.9644963 C0.201965602,87.2996314 -0.807862408,79.1200246 2.07014742,71.5463145 L21.4588452,20.9539312 C26.2050369,8.63402948 38.2219902,0.353439803 51.4002457,0.353439803 L85.1285012,0.353439803 C86.6432432,0.353439803 88.0065111,1.11081081 88.8143735,2.37309582 C89.6222359,3.63538084 89.7232187,5.20061425 89.0668305,6.56388206 C86.6432432,11.6130221 81.442629,14.8949631 75.8380835,14.8949631 L50.6428747,14.8949631 C43.62457,14.8949631 37.2121622,19.287715 34.6875921,25.9020885 L17.9244472,69.9305897 C15.9552826,75.1312039 16.6116708,80.7357494 19.792629,85.2799754 C22.9230958,89.8746929 27.9217445,92.5002457 33.4757985,92.5002457 L100.124447,92.5002457 C100.679853,92.5002457 101.134275,92.9546683 101.134275,93.5100737 C101.134275,94.0654791 100.679853,94.5199017 100.124447,94.5199017 L33.4757985,94.5199017 C27.2653563,94.5199017 21.6608108,91.5914005 18.1264128,86.4412776 C14.5920147,81.2911548 13.8346437,75.0302211 16.0562654,69.2237101 L32.8194103,25.1952088 C35.5964373,17.8234644 42.7662162,12.9257985 50.6428747,12.9257985 L75.7371007,12.9257985 C80.5842752,12.9257985 85.0780098,10.0982801 87.1481572,5.75601966 C87.5015971,4.99864865 87.4511057,4.19078624 87.0471744,3.53439803 C86.5927518,2.82751843 85.8858722,2.42358722 85.0780098,2.42358722 L51.3497543,2.42358722 C38.9793612,2.42358722 27.7197789,10.1992629 23.2765356,21.7617936 L3.88783784,72.3541769 C1.21179361,79.2714988 2.12063882,86.7947174 6.31142506,92.9041769 C10.5022113,99.0136364 17.1670762,102.548034 24.589312,102.548034 L75.9390663,102.548034 C80.3318182,102.548034 84.6235872,101.689681 88.7133907,99.972973 C89.2183047,99.7710074 89.8242015,100.023464 90.0261671,100.528378 C90.2281327,101.033292 89.9756757,101.639189 89.4707617,101.841155 C85.229484,103.557862 80.685258,104.466708 75.9895577,104.466708 Z" id="Shape" fill="#272F42"></path>
                </g>
                <path d="M409.636732,263.615602 L128.147174,263.615602 C127.591769,263.615602 127.137346,263.161179 127.137346,262.605774 L127.137346,250.538329 C127.137346,249.982924 127.591769,249.528501 128.147174,249.528501 L409.636732,249.528501 C410.192138,249.528501 410.64656,249.982924 410.64656,250.538329 L410.64656,262.605774 C410.64656,263.161179 410.192138,263.615602 409.636732,263.615602 Z M129.157002,261.595946 L408.626904,261.595946 L408.626904,251.548157 L129.157002,251.548157 L129.157002,261.595946 Z" id="Shape" fill="#272F42"></path>
                <g id="Group" transform="translate(381.714988, 261.545455)">
                    <polyline id="Shape" fill="#FFFFFF" points="1.36326781 46.6540541 1.36326781 1.06031941 11.8149877 1.06031941 11.8149877 39.0298526"></polyline>
                    <path d="M1.36326781,47.6638821 C0.807862408,47.6638821 0.353439803,47.2094595 0.353439803,46.6540541 L0.353439803,0 L12.8248157,0 L12.8248157,39.0298526 C12.8248157,39.585258 12.3703931,40.0396806 11.8149877,40.0396806 C11.2595823,40.0396806 10.8051597,39.585258 10.8051597,39.0298526 L10.8051597,2.01965602 L2.37309582,2.01965602 L2.37309582,46.6540541 C2.37309582,47.2599509 1.91867322,47.6638821 1.36326781,47.6638821 Z" id="Shape" fill="#272F42"></path>
                </g>
                <rect id="Rectangle-path" fill="#272F42" opacity="0.31" x="383.078256" y="262.605774" width="10.4517199" height="11.0576167"></rect>
                <g id="Group" transform="translate(140.871007, 261.545455)">
                    <polyline id="Shape" fill="#FFFFFF" points="1.06031941 87.4006143 1.06031941 1.06031941 11.5120393 1.06031941 11.5120393 81.5436118"></polyline>
                    <path d="M1.06031941,88.4104423 C0.504914005,88.4104423 0.0504914005,87.9560197 0.0504914005,87.4006143 L0.0504914005,0.0504914005 L12.5218673,0.0504914005 L12.5218673,81.5941032 C12.5218673,82.1495086 12.0674447,82.6039312 11.5120393,82.6039312 C10.9566339,82.6039312 10.5022113,82.1495086 10.5022113,81.5941032 L10.5022113,2.07014742 L2.07014742,2.07014742 L2.07014742,87.4006143 C2.07014742,87.9560197 1.61572482,88.4104423 1.06031941,88.4104423 Z" id="Shape" fill="#272F42"></path>
                </g>
                <rect id="Rectangle-path" fill="#272F42" opacity="0.31" x="141.931327" y="262.605774" width="10.4517199" height="11.0576167"></rect>
                <g id="Group" transform="translate(283.256757, 82.805897)" fill="#272F42">
                    <path d="M84.8760442,7.06879607 C84.8760442,3.68587224 82.1495086,0.959336609 78.7665848,0.959336609 L77.5042998,0.959336609 L77.5042998,4.39275184 L56.4493857,4.39275184 C53.7733415,4.39275184 51.3497543,6.05896806 50.3904177,8.53304668 L6.00847666,123.199017 L3.68587224,122.643612 L1.46425061,123.400983 L1.61572482,124.915725 C1.81769042,126.834398 3.23144963,128.399631 5.09963145,128.803563 L6.86683047,129.207494 C6.91732187,129.207494 6.96781327,129.257985 7.06879607,129.257985 L26.4070025,133.246806 C31.4561425,134.307125 36.5052826,131.530098 38.3734644,126.733415 L84.72457,8.78550369 C84.9265356,8.17960688 84.977027,7.62420147 84.8760442,7.06879607 Z" id="Shape"></path>
                    <path d="M28.5276413,134.408108 C28.5276413,134.408108 28.5276413,134.408108 28.5276413,134.408108 C27.7197789,134.408108 26.9624079,134.307125 26.2050369,134.155651 L6.86683047,130.16683 C6.76584767,130.16683 6.71535627,130.116339 6.61437346,130.065848 L4.89766585,129.712408 C2.57506143,129.207494 0.858353808,127.288821 0.605896806,124.966216 L0.353439803,122.694103 L3.63538084,121.583292 L5.40257985,121.987224 L49.4815725,8.23009828 C50.5923833,5.35208845 53.4199017,3.43341523 56.4998771,3.43341523 L76.5449631,3.43341523 L76.5449631,0 L78.8170762,0 C82.704914,0 85.8858722,3.13046683 85.9363636,7.01830467 C86.0373464,7.72518428 85.9363636,8.48255528 85.6839066,9.13894349 L39.332801,127.086855 C37.565602,131.530098 33.3243243,134.408108 28.5276413,134.408108 Z M7.27076167,128.248157 L26.5584767,132.236978 C27.2148649,132.388452 27.8712531,132.438943 28.4771499,132.438943 C32.4154791,132.438943 35.9498771,130.065848 37.3636364,126.379975 L83.714742,8.43206388 C83.8662162,8.07862408 83.9167076,7.67469287 83.8157248,7.32125307 L83.8157248,7.16977887 C83.8157248,4.39275184 81.5436118,2.07014742 78.7160934,2.07014742 L78.4636364,2.07014742 L78.4636364,5.50356265 L56.3988943,5.50356265 C54.1267813,5.50356265 52.0566339,6.91732187 51.2487715,9.03796069 L6.51339066,124.461302 L3.63538084,123.754423 L2.42358722,124.158354 L2.47407862,124.865233 C2.62555283,126.329484 3.73636364,127.541278 5.15012285,127.844226 L6.96781327,128.248157 C7.16977887,128.197666 7.22027027,128.197666 7.27076167,128.248157 C7.27076167,128.248157 7.27076167,128.248157 7.27076167,128.248157 Z" id="Shape"></path>
                </g>
                <g id="Group" transform="translate(283.256757, 82.805897)">
                    <path d="M27.5683047,55.2880835 L1.66621622,122.189189 C1.06031941,123.754423 2.01965602,125.47113 3.63538084,125.82457 L22.9735872,129.813391 C28.0227273,130.87371 33.0718673,128.096683 34.9400491,123.3 L81.2911548,5.30159705 C82.0990172,3.23144963 80.5842752,1.00982801 78.3626536,1.00982801 L53.0664619,1.00982801 C50.3904177,1.00982801 47.9668305,2.67604423 47.0074939,5.15012285 L33.9302211,38.8783784" id="Shape" fill="#FFFFFF"></path>
                    <path d="M25.094226,130.974693 C24.336855,130.974693 23.5289926,130.87371 22.7211302,130.722236 L3.38292383,126.733415 C2.32260442,126.53145 1.41375921,125.82457 0.858353808,124.865233 C0.353439803,123.905897 0.252457002,122.744595 0.656388206,121.734767 L26.5584767,54.8336609 C26.7604423,54.3287469 27.3663391,54.0762899 27.8712531,54.2782555 C28.3761671,54.4802211 28.6286241,55.0861179 28.4266585,55.5910319 L2.52457002,122.492138 C2.32260442,122.94656 2.37309582,123.451474 2.62555283,123.905897 C2.87800983,124.360319 3.28194103,124.663268 3.78685504,124.764251 L23.1250614,128.753071 C27.7197789,129.712408 32.2640049,127.238329 33.9807125,122.896069 L80.3318182,4.94815725 C80.5842752,4.29176904 80.5337838,3.53439803 80.1298526,2.92850123 C79.7259214,2.32260442 79.0695332,1.96916462 78.3626536,1.96916462 L53.0664619,1.96916462 C50.7943489,1.96916462 48.7242015,3.38292383 47.9163391,5.50356265 L34.8390663,39.2823096 C34.6371007,39.7872236 34.0312039,40.0396806 33.5262899,39.837715 C33.0213759,39.6357494 32.7689189,39.0298526 32.9708845,38.5249386 L46.0481572,4.79668305 C47.1589681,1.91867322 49.9864865,0 53.0664619,0 L78.3626536,0 C79.7259214,0 81.0386978,0.656388206 81.7960688,1.81769042 C82.5534398,2.97899263 82.7554054,4.39275184 82.2504914,5.70552826 L35.8488943,123.65344 C34.0816953,128.147174 29.7899263,130.974693 25.094226,130.974693 Z" id="Shape" fill="#272F42"></path>
                </g>
                <polygon id="Shape" fill="#272F42" opacity="0.42" points="333.647174 167.126536 337.333047 192.927641 340.463514 185.000491 336.828133 159.401351"></polygon>
                <path d="M343.492998,251.447174 L300.423833,251.447174 L303.049386,249.629484 C307.189681,246.751474 311.986364,245.236732 317.035504,245.236732 L343.240541,245.236732 C343.392015,245.236732 343.543489,245.135749 343.59398,245.085258 C343.644472,245.034767 343.745455,244.883292 343.694963,244.731818 L332.586855,167.076044 L337.232064,155.614496 L349.854914,244.07543 C350.107371,245.943612 349.551966,247.811794 348.340172,249.225553 C347.17887,250.588821 345.411671,251.447174 343.492998,251.447174 Z M307.391646,249.427518 L343.543489,249.427518 C344.856265,249.427518 346.068059,248.872113 346.926413,247.862285 C347.784767,246.902948 348.138206,245.590172 347.986732,244.327887 L336.37371,163.238698 L334.707494,167.27801 L345.714619,244.378378 C345.815602,245.085258 345.613636,245.792138 345.159214,246.347543 C344.704791,246.902948 343.997912,247.205897 343.291032,247.205897 L317.085995,247.205897 C313.65258,247.205897 310.370639,247.963268 307.391646,249.427518 Z" id="Shape" fill="#272F42"></path>
                <path d="M284.922973,204.944595 C284.317076,206.509828 285.276413,208.226536 286.892138,208.579975 L306.230344,212.568796 C311.279484,213.629115 316.328624,210.852088 318.196806,206.055405 L321.882678,196.714496 L289.669165,192.776167 L284.922973,204.944595 Z" id="Shape" fill="#272F42" opacity="0.17"></path>
                <g id="Group" transform="translate(363.033170, 184.798526)">
                    <path d="M24.9427518,11.6130221 L1.91867322,11.6130221 C0.908845209,11.6130221 0.0504914005,10.7546683 0.0504914005,9.74484029 L0.0504914005,8.12911548 C0.0504914005,7.22027027 0.504914005,6.36191646 1.21179361,5.80651106 L4.14029484,3.58488943 C4.29176904,3.43341523 4.54422604,3.38292383 4.74619165,3.38292383 L22.064742,3.38292383 C22.2667076,3.38292383 22.5191646,3.43341523 22.6706388,3.58488943 L25.59914,5.80651106 C26.3060197,6.36191646 26.7604423,7.22027027 26.7604423,8.12911548 L26.7604423,9.74484029 C26.8109337,10.8051597 25.9525799,11.6130221 24.9427518,11.6130221 Z M2.07014742,9.59336609 L24.7912776,9.59336609 L24.7912776,8.12911548 C24.7912776,7.82616708 24.6398034,7.57371007 24.4378378,7.37174447 L21.7617936,5.35208845 L5.09963145,5.35208845 L2.42358722,7.37174447 C2.17113022,7.52321867 2.07014742,7.82616708 2.07014742,8.12911548 L2.07014742,9.59336609 Z" id="Shape" fill="#272F42"></path>
                    <rect id="Rectangle-path" fill="#272F42" x="10.9566339" y="0" width="4.89766585" height="4.34226044"></rect>
                    <path d="M19.8431204,8.23009828 L1.16130221,8.23009828 C0.757371007,8.23009828 0.403931204,7.87665848 0.403931204,7.47272727 C0.403931204,7.06879607 0.757371007,6.71535627 1.16130221,6.71535627 L19.8431204,6.71535627 C20.2470516,6.71535627 20.6004914,7.06879607 20.6004914,7.47272727 C20.6004914,7.87665848 20.2470516,8.23009828 19.8431204,8.23009828 Z" id="Shape" fill="#272F42" opacity="0.58"></path>
                    <g transform="translate(0.000000, 9.593366)" id="Shape">
                        <path d="M25.8011057,18.9847666 L25.8011057,1.86818182 C25.8011057,1.41375921 25.3971744,1.00982801 24.9427518,1.00982801 L1.91867322,1.00982801 C1.46425061,1.00982801 1.06031941,1.41375921 1.06031941,1.86818182 L1.06031941,18.9847666 C1.06031941,20.0955774 1.51474201,21.2063882 2.32260442,22.0142506 L2.32260442,22.0142506 C3.98882064,23.6804668 3.98882064,26.4070025 2.32260442,28.0732187 L2.32260442,28.0732187 C1.51474201,28.8810811 1.06031941,29.9414005 1.06031941,31.1027027 L1.06031941,51.6527027 C1.06031941,54.0762899 3.02948403,56.0454545 5.45307125,56.0454545 L21.4588452,56.0454545 C23.8824324,56.0454545 25.8515971,54.0762899 25.8515971,51.6527027 L25.8515971,31.1027027 C25.8515971,29.9918919 25.3971744,28.8810811 24.589312,28.0732187 L24.589312,28.0732187 C22.9230958,26.4070025 22.9230958,23.6804668 24.589312,22.0142506 L24.589312,22.0142506 C25.346683,21.2063882 25.8011057,20.1460688 25.8011057,18.9847666 Z" fill="#AEB1BA"></path>
                        <path d="M21.4083538,57.0552826 L5.40257985,57.0552826 C2.42358722,57.0552826 -1.13686838e-13,54.6316953 -1.13686838e-13,51.6527027 L-1.13686838e-13,31.1027027 C-1.13686838e-13,29.6889435 0.555405405,28.3761671 1.56523342,27.3663391 C2.17113022,26.7604423 2.52457002,25.9020885 2.52457002,25.0437346 C2.52457002,24.1853808 2.17113022,23.327027 1.56523342,22.7211302 C0.555405405,21.7113022 -1.13686838e-13,20.3985258 -1.13686838e-13,18.9847666 L-1.13686838e-13,1.86818182 C-1.13686838e-13,0.858353808 0.858353808,0 1.86818182,0 L24.8922604,0 C25.9020885,0 26.7604423,0.858353808 26.7604423,1.86818182 L26.7604423,18.9847666 C26.7604423,20.3985258 26.2050369,21.7113022 25.1952088,22.7211302 C23.9329238,23.9834152 23.9329238,26.0535627 25.1952088,27.3663391 C26.2050369,28.3761671 26.7604423,29.6889435 26.7604423,31.1027027 L26.7604423,51.6527027 C26.8109337,54.6316953 24.3873464,57.0552826 21.4083538,57.0552826 Z M2.07014742,2.01965602 L2.07014742,18.9847666 C2.07014742,19.8431204 2.42358722,20.7014742 3.02948403,21.307371 C4.03931204,22.317199 4.59471744,23.6299754 4.59471744,25.0437346 C4.59471744,26.4574939 4.03931204,27.7702703 3.02948403,28.7800983 C2.42358722,29.3859951 2.07014742,30.2443489 2.07014742,31.1027027 L2.07014742,51.6527027 C2.07014742,53.5208845 3.58488943,55.0356265 5.45307125,55.0356265 L21.4588452,55.0356265 C23.327027,55.0356265 24.841769,53.5208845 24.841769,51.6527027 L24.841769,31.1027027 C24.841769,30.2443489 24.4883292,29.3859951 23.8824324,28.7800983 C21.812285,26.7099509 21.812285,23.3775184 23.8824324,21.307371 C24.4883292,20.7014742 24.841769,19.8431204 24.841769,18.9847666 L24.841769,2.01965602 L2.07014742,2.01965602 Z" fill="#272F42"></path>
                    </g>
                    <path d="M1.16130221,29.5879607 C1.36326781,30.3453317 1.71670762,31.1027027 2.32260442,31.6581081 C3.07997543,32.4154791 3.53439803,33.4253071 3.58488943,34.4351351 L23.327027,34.4351351 C23.3775184,33.4253071 23.7814496,32.4154791 24.589312,31.6581081 C25.1447174,31.1027027 25.5486486,30.3453317 25.7506143,29.5879607 L1.16130221,29.5879607 Z" id="Shape" fill="#272F42" opacity="0.18"></path>
                    <path d="M5.25110565,27.1138821 L5.15012285,27.1138821 C4.44324324,27.1138821 3.88783784,26.5584767 3.88783784,25.8515971 L3.88783784,14.7939803 C3.88783784,14.0871007 4.44324324,13.5316953 5.15012285,13.5316953 L5.25110565,13.5316953 C5.95798526,13.5316953 6.51339066,14.0871007 6.51339066,14.7939803 L6.51339066,25.8515971 C6.51339066,26.5584767 5.95798526,27.1138821 5.25110565,27.1138821 Z" id="Shape" fill="#FFFFFF"></path>
                    <path d="M5.25110565,61.4985258 L5.15012285,61.4985258 C4.44324324,61.4985258 3.88783784,60.9431204 3.88783784,60.2362408 L3.88783784,41.857371 C3.88783784,41.1504914 4.44324324,40.595086 5.15012285,40.595086 L5.25110565,40.595086 C5.95798526,40.595086 6.51339066,41.1504914 6.51339066,41.857371 L6.51339066,60.2362408 C6.51339066,60.892629 5.95798526,61.4985258 5.25110565,61.4985258 Z" id="Shape" fill="#FFFFFF"></path>
                </g>
                <g id="Group" transform="translate(261.040541, 97.448403)">
                    <g id="Shape">
                        <path d="M62.154914,37.8685504 L2.77702703,37.8685504 C1.81769042,37.8685504 1.00982801,37.060688 1.00982801,36.1013514 L1.00982801,3.23144963 C1.00982801,2.27211302 1.81769042,1.46425061 2.77702703,1.46425061 L62.154914,1.46425061 C63.1142506,1.46425061 63.922113,2.27211302 63.922113,3.23144963 L63.922113,36.1013514 C63.922113,37.060688 63.1142506,37.8685504 62.154914,37.8685504 Z" fill="#FFFFFF"></path>
                        <path d="M62.154914,38.8783784 L2.77702703,38.8783784 C1.26228501,38.8783784 0,37.6160934 0,36.1013514 L0,3.23144963 C0,1.71670762 1.26228501,0.454422604 2.77702703,0.454422604 L62.154914,0.454422604 C63.669656,0.454422604 64.931941,1.71670762 64.931941,3.23144963 L64.931941,36.1013514 C64.931941,37.6160934 63.669656,38.8783784 62.154914,38.8783784 Z M2.77702703,2.47407862 C2.37309582,2.47407862 2.01965602,2.82751843 2.01965602,3.23144963 L2.01965602,36.1013514 C2.01965602,36.5052826 2.37309582,36.8587224 2.77702703,36.8587224 L62.154914,36.8587224 C62.5588452,36.8587224 62.912285,36.5052826 62.912285,36.1013514 L62.912285,3.23144963 C62.912285,2.82751843 62.5588452,2.47407862 62.154914,2.47407862 L2.77702703,2.47407862 Z" fill="#272F42"></path>
                    </g>
                    <polygon id="Shape" fill="#ED0F62" points="27.9217445 28.3761671 22.064742 22.5191646 24.6398034 19.8936118 27.9217445 23.2260442 37.9695332 13.1277641 40.595086 15.7028256"></polygon>
                </g>
                <g id="Group" transform="translate(252.457002, 28.780098)">
                    <g id="Shape">
                        <path d="M62.5588452,37.5151106 L3.18095823,37.5151106 C2.22162162,37.5151106 1.41375921,36.7072482 1.41375921,35.7479115 L1.41375921,2.87800983 C1.41375921,1.91867322 2.22162162,1.11081081 3.18095823,1.11081081 L62.5588452,1.11081081 C63.5181818,1.11081081 64.3260442,1.91867322 64.3260442,2.87800983 L64.3260442,35.7479115 C64.3260442,36.7072482 63.5181818,37.5151106 62.5588452,37.5151106 Z" fill="#FFFFFF"></path>
                        <path d="M62.5588452,38.5249386 L3.18095823,38.5249386 C1.66621622,38.5249386 0.403931204,37.2626536 0.403931204,35.7479115 L0.403931204,2.87800983 C0.403931204,1.36326781 1.66621622,0.100982801 3.18095823,0.100982801 L62.5588452,0.100982801 C64.0735872,0.100982801 65.3358722,1.36326781 65.3358722,2.87800983 L65.3358722,35.7479115 C65.3358722,37.2626536 64.0735872,38.5249386 62.5588452,38.5249386 Z M3.18095823,2.12063882 C2.77702703,2.12063882 2.42358722,2.47407862 2.42358722,2.87800983 L2.42358722,35.7479115 C2.42358722,36.1518428 2.77702703,36.5052826 3.18095823,36.5052826 L62.5588452,36.5052826 C62.9627764,36.5052826 63.3162162,36.1518428 63.3162162,35.7479115 L63.3162162,2.87800983 C63.3162162,2.47407862 62.9627764,2.12063882 62.5588452,2.12063882 L3.18095823,2.12063882 Z" fill="#272F42"></path>
                    </g>
                    <polygon id="Shape" fill="#ED0F62" points="28.3256757 28.0227273 22.4181818 22.1152334 25.0437346 19.540172 28.3256757 22.822113 38.3734644 12.7743243 40.9990172 15.3493857"></polygon>
                </g>
                <g id="Group" transform="translate(295.374693, 0.000000)">
                    <g id="Shape">
                        <path d="M62.5588452,37.4646192 L3.18095823,37.4646192 C2.22162162,37.4646192 1.41375921,36.6567568 1.41375921,35.6974201 L1.41375921,2.82751843 C1.41375921,1.86818182 2.22162162,1.06031941 3.18095823,1.06031941 L62.5588452,1.06031941 C63.5181818,1.06031941 64.3260442,1.86818182 64.3260442,2.82751843 L64.3260442,35.6974201 C64.3260442,36.6567568 63.5686732,37.4646192 62.5588452,37.4646192 Z" fill="#FFFFFF"></path>
                        <path d="M62.5588452,38.4744472 L3.18095823,38.4744472 C1.66621622,38.4744472 0.403931204,37.2121622 0.403931204,35.6974201 L0.403931204,2.82751843 C0.403931204,1.31277641 1.66621622,0.0504914005 3.18095823,0.0504914005 L62.5588452,0.0504914005 C64.0735872,0.0504914005 65.3358722,1.31277641 65.3358722,2.82751843 L65.3358722,35.6974201 C65.3358722,37.2121622 64.1240786,38.4744472 62.5588452,38.4744472 Z M3.18095823,2.07014742 C2.77702703,2.07014742 2.42358722,2.42358722 2.42358722,2.82751843 L2.42358722,35.6974201 C2.42358722,36.1013514 2.77702703,36.4547912 3.18095823,36.4547912 L62.5588452,36.4547912 C62.9627764,36.4547912 63.3162162,36.1013514 63.3162162,35.6974201 L63.3162162,2.82751843 C63.3162162,2.42358722 62.9627764,2.07014742 62.5588452,2.07014742 L3.18095823,2.07014742 Z" fill="#272F42"></path>
                    </g>
                    <polygon id="Shape" fill="#ED0F62" points="28.3761671 27.9722359 22.4686732 22.1152334 25.0437346 19.540172 28.3761671 22.822113 38.4239558 12.7238329 40.9990172 15.3493857"></polygon>
                </g>
                <path d="M251.598649,78.665602 L249.881941,78.665602 C249.326536,78.665602 248.872113,78.2111794 248.872113,77.655774 L248.872113,75.9390663 C248.872113,75.3836609 248.518673,74.8787469 247.963268,74.8282555 C247.30688,74.7272727 246.700983,75.2321867 246.700983,75.8885749 L246.700983,77.655774 C246.700983,78.2111794 246.24656,78.665602 245.691155,78.665602 L243.974447,78.665602 C243.419042,78.665602 242.914128,79.0190418 242.863636,79.5744472 C242.762654,80.2308354 243.267568,80.8367322 243.923956,80.8367322 L245.691155,80.8367322 C246.24656,80.8367322 246.700983,81.2911548 246.700983,81.8465602 L246.700983,83.5632678 C246.700983,84.1186732 247.054423,84.6235872 247.609828,84.6740786 C248.266216,84.7750614 248.872113,84.2701474 248.872113,83.6137592 L248.872113,81.8465602 C248.872113,81.2911548 249.326536,80.8367322 249.881941,80.8367322 L251.64914,80.8367322 C252.305528,80.8367322 252.810442,80.2308354 252.709459,79.5744472 C252.658968,79.0190418 252.154054,78.665602 251.598649,78.665602 Z" id="Shape" fill="#ED0F62" opacity="0.32"></path>
                <path d="M342.836609,55.5910319 L341.119902,55.5910319 C340.564496,55.5910319 340.110074,55.1366093 340.110074,54.5812039 L340.110074,52.8644963 C340.110074,52.3090909 339.756634,51.8041769 339.201229,51.7536855 C338.54484,51.6527027 337.938943,52.1576167 337.938943,52.8140049 L337.938943,54.5812039 C337.938943,55.1366093 337.484521,55.5910319 336.929115,55.5910319 L335.212408,55.5910319 C334.657002,55.5910319 334.152088,55.9444717 334.101597,56.4998771 C334.000614,57.1562654 334.505528,57.7621622 335.161916,57.7621622 L336.929115,57.7621622 C337.484521,57.7621622 337.938943,58.2165848 337.938943,58.7719902 L337.938943,60.4886978 C337.938943,61.0441032 338.292383,61.5490172 338.847789,61.5995086 C339.504177,61.7004914 340.110074,61.1955774 340.110074,60.5391892 L340.110074,58.7719902 C340.110074,58.2165848 340.564496,57.7621622 341.119902,57.7621622 L342.887101,57.7621622 C343.543489,57.7621622 344.048403,57.1562654 343.94742,56.4998771 C343.896929,55.9949631 343.392015,55.5910319 342.836609,55.5910319 Z" id="Shape" fill="#ED0F62" opacity="0.32"></path>
                <path d="M279.065971,12.8753071 L277.349263,12.8753071 C276.793857,12.8753071 276.339435,12.4208845 276.339435,11.8654791 L276.339435,10.0982801 C276.339435,9.54287469 275.985995,9.03796069 275.43059,8.98746929 C274.774201,8.88648649 274.168305,9.39140049 274.168305,10.0477887 L274.168305,11.8149877 C274.168305,12.3703931 273.713882,12.8248157 273.158477,12.8248157 L271.441769,12.8248157 C270.886364,12.8248157 270.38145,13.1782555 270.330958,13.7336609 C270.229975,14.3900491 270.734889,14.9959459 271.391278,14.9959459 L273.158477,14.9959459 C273.713882,14.9959459 274.168305,15.4503686 274.168305,16.005774 L274.168305,17.7224816 C274.168305,18.277887 274.521744,18.782801 275.07715,18.8332924 C275.733538,18.9342752 276.339435,18.4293612 276.339435,17.772973 L276.339435,16.005774 C276.339435,15.4503686 276.793857,14.9959459 277.349263,14.9959459 L279.116462,14.9959459 C279.77285,14.9959459 280.277764,14.3900491 280.176781,13.7336609 C280.12629,13.2287469 279.621376,12.8753071 279.065971,12.8753071 Z" id="Shape" fill="#ED0F62" opacity="0.32"></path>
                <g id="Group" transform="translate(105.022113, 97.448403)">
                    <path d="M2.22162162,10.1992629 C2.22162162,10.1992629 25.1447174,17.9244472 42.8167076,41.857371 L46.6540541,29.0325553 C47.4619165,26.3565111 47.0074939,23.4785012 45.4422604,21.2063882 C41.2514742,15.1474201 31.1027027,4.08980344 11.4615479,1.46425061 L2.22162162,10.1992629 Z" id="Shape" fill="#FCACD1"></path>
                    <path d="M43.2206388,44.129484 L42.0088452,42.5137592 C24.6902948,19.1362408 2.12063882,11.2595823 1.86818182,11.2090909 L0.302948403,10.6536855 L11.1081081,0.403931204 L11.5625307,0.454422604 C31.4056511,3.07997543 41.8068796,14.1880835 46.2501229,20.6004914 C48.0173219,23.1250614 48.5222359,26.3060197 47.6133907,29.2850123 L43.2206388,44.129484 Z M4.03931204,9.8458231 C9.39140049,12.0169533 27.5683047,20.4490172 42.4127764,39.6862408 L45.6947174,28.7296069 C46.4015971,26.3565111 45.9976658,23.7814496 44.5839066,21.7617936 C40.3931204,15.7028256 30.5472973,5.15012285 11.7644963,2.52457002 L4.03931204,9.8458231 Z" id="Shape" fill="#272F42"></path>
                </g>
                <path d="M40.595086,339.049754 L40.595086,339.049754 C30.0928747,337.030098 23.4785012,325.92199 27.4673219,315.419779 L44.2304668,271.391278 C46.9065111,264.372973 53.6218673,259.778256 61.0945946,259.778256 L86.3402948,259.778256 C89.6222359,259.778256 92.7527027,258.616953 95.1762899,256.546806 L57.8126536,256.546806 C50.2894349,256.546806 43.5740786,261.141523 40.7970516,268.109337 C36.1518428,279.823342 28.8305897,298.303194 23.0240786,313.501106 C18.277887,325.821007 27.4168305,339.049754 40.595086,339.049754 L40.595086,339.049754 Z" id="Shape" fill="#272F42" opacity="0.33"></path>
                <g id="Group" transform="translate(139.356265, 26.760442)">
                    <g transform="translate(7.573710, 0.000000)" id="Shape">
                        <path d="M16.3592138,28.8305897 C16.3592138,20.045086 17.0660934,11.4110565 18.3788698,2.97899263 C18.530344,2.12063882 17.772973,1.31277641 16.9146192,1.41375921 C12.2694103,1.86818182 8.53304668,2.57506143 5.70552826,3.23144963 C3.93832924,3.63538084 2.67604423,5.09963145 2.47407862,6.86683047 C1.61572482,14.1375921 1.16130221,21.4588452 1.16130221,28.8810811 C1.16130221,36.6567568 1.66621622,44.381941 2.57506143,52.0061425 L17.5710074,48.7242015 C16.763145,42.1603194 16.3592138,35.5459459 16.3592138,28.8305897 Z" fill="#FFFFFF"></path>
                        <path d="M1.66621622,53.1674447 L1.51474201,52.0566339 C0.555405405,44.381941 0.0504914005,36.555774 0.0504914005,28.8305897 C0.0504914005,21.5093366 0.504914005,14.0366093 1.36326781,6.71535627 C1.61572482,4.49373464 3.23144963,2.72653563 5.40257985,2.22162162 C8.83599509,1.41375921 12.6733415,0.807862408 16.7126536,0.403931204 C17.520516,0.302948403 18.2273956,0.656388206 18.7323096,1.21179361 C19.1867322,1.71670762 19.3886978,2.42358722 19.287715,3.13046683 C17.9749386,11.6130221 17.3185504,20.2470516 17.3185504,28.8305897 C17.3185504,35.3439803 17.7224816,42.0088452 18.4798526,48.5727273 L18.5808354,49.4815725 L1.66621622,53.1674447 Z M17.015602,2.42358722 C12.9762899,2.82751843 9.23992629,3.43341523 5.90749386,4.19078624 C4.59471744,4.49373464 3.58488943,5.60454545 3.43341523,6.96781327 C2.57506143,14.2385749 2.12063882,21.6103194 2.12063882,28.8305897 C2.12063882,36.1013514 2.57506143,43.4730958 3.43341523,50.7438575 L16.4601966,47.9163391 C15.753317,41.5544226 15.3998771,35.1420147 15.3998771,28.8305897 C15.3998771,20.1460688 16.0562654,11.4110565 17.4195332,2.82751843 C17.4195332,2.67604423 17.3690418,2.57506143 17.3185504,2.52457002 C17.2175676,2.47407862 17.1165848,2.42358722 17.015602,2.42358722 Z" fill="#272F42"></path>
                    </g>
                    <g transform="translate(0.000000, 34.839066)">
                        <circle id="Oval" fill="#FFFFFF" cx="16.510688" cy="16.510688" r="15.3998771"></circle>
                        <path d="M16.510688,32.9203931 C7.47272727,32.9203931 0.100982801,25.5486486 0.100982801,16.510688 C0.100982801,7.47272727 7.47272727,0.100982801 16.510688,0.100982801 C25.5486486,0.100982801 32.9203931,7.47272727 32.9203931,16.510688 C32.9203931,25.5486486 25.59914,32.9203931 16.510688,32.9203931 Z M16.510688,2.07014742 C8.58353808,2.07014742 2.12063882,8.53304668 2.12063882,16.4601966 C2.12063882,24.3873464 8.58353808,30.8502457 16.510688,30.8502457 C24.4378378,30.8502457 30.9007371,24.3873464 30.9007371,16.4601966 C30.9007371,8.53304668 24.4883292,2.07014742 16.510688,2.07014742 Z" id="Shape" fill="#272F42"></path>
                    </g>
                    <path d="M16.510688,61.65 C10.8051597,61.65 6.21044226,57.0047912 6.21044226,51.3497543 C6.21044226,45.644226 10.8556511,41.0495086 16.510688,41.0495086 C22.2162162,41.0495086 26.8109337,45.6947174 26.8109337,51.3497543 C26.8614251,57.0047912 22.2162162,61.65 16.510688,61.65 Z" id="Shape" fill="#AEB1BA" opacity="0.48"></path>
                </g>
                <path d="M191.059459,94.7723587 C190.907985,94.7723587 190.756511,94.7218673 190.605037,94.6208845 C190.251597,94.3684275 190.201106,93.9140049 190.403071,93.5605651 C191.513882,91.9953317 193.23059,90.9855037 195.149263,90.8340295 C195.553194,90.7835381 195.957125,91.0864865 196.007617,91.5409091 C196.058108,91.9448403 195.75516,92.2982801 195.351229,92.3487715 L195.300737,92.3487715 C193.836486,92.4497543 192.52371,93.2071253 191.665356,94.4189189 C191.564373,94.6713759 191.311916,94.7723587 191.059459,94.7723587 Z" id="Shape" fill="#272F42" opacity="0.45"></path>
            </g>
        </g>
    </g>
</svg>